<svg xmlns="http://www.w3.org/2000/svg" width="225" height="224" fill="none" viewBox="0 0 225 224"><g fill="#1b1b1b" fill-rule="evenodd" clip-rule="evenodd"><path d="M145.229 45.503c1.582-.1 9.886-.08 11.813 0 4.231.173 9.406.33 14.721.48 1.487-.07 2.563 1.145 2.632 2.632-.1 3.548-.197 7.158-.295 10.589-.212 7.36.096 11.344 1.163 16.873-.345 2.92-.592 7.41-.747 12.403.072 1.556-1.198 2.68-2.753 2.753-8.524-.266-18.523-.266-24.718-.03-2.453.095-6.757.16-10.188.11-1.6.074-2.757-1.232-2.832-2.833.019-1.268.054-2.418.109-3.31.168-2.746.324-19.817.32-28.183h-.143c.053-.914.303-5.631.356-6.547.083-1.432.938.857 1.021-.576.018-.288.899-.015.959-.093a6.25 6.25 0 0 1 .488-.578c-.04-.224.13-.51.879-1.135.077-.067-.196-1.03.092-1.048 1.433-.091-.856-1.027.577-1.118.915-.058 5.633-.332 6.546-.39zm12.689 6.104c.039.168.07.303.086.366.1.403.079 2.51 0 2.998-.289 1.791-.53 4.249-.776 6.424-.211 1.868.097 2.88 1.164 4.282-.933 2.007-1.152 6.929-.777 9.422.129.853.203 2.587 0 3.426-.168.698-.325 5.03-.32 7.153h.142l-.123.575c3.854-.05 7.474-.281 9.979-.866h1.688c.15.059.303.111.456.163-.066-2.875-.522-5.76-.38-7.785.048-.695.361-1.064.387-1.688.096-2.257-.063-5.179 0-7.592h-.775l.388-5.063-.777-.843c.174-1.013.777-4.76.777-5.064-.002-.58-.647-1.753-.388-3.373l.388-3.38-1.891-.216-9.248 1.061zm-6.44-.181c-2.076-.144-4.207-.134-6.249.671l-5.041-.164.037 1.196.115-.02c-.04.108-.076.213-.107.313l.107 3.565h-.006c.026.342.034.731.006 1.186-.174 1.011-.777 4.753-.777 5.06.002.57.387 1.121.388 1.688.001.305-.601 4.052-.775 5.061l.775.845v5.06h-.775c-.163 4.013 1.081 4.901.775 9.283l-.042.588.387.016c2.556.1 6.728.334 11.176.438l-.063-.533h.006a.56.56 0 0 1-.006-.301c.174-.256.775-1.205.776-1.285-.002-.145-.385-.285-.387-.428-.001-.077.601-1.029.775-1.285l-.775-.214v-1.284h.775c.163-1.019-1.081-1.245-.775-2.357.181-.659.254-.854.387-1.713.232-1.494 1.164-5.166-.387-6.851v-.429c1.635-1.05.147-2.552.387-3.426.049-.176.361-.27.388-.428.096-.573-.063-1.315 0-1.927h-.775l.387-1.285-.776-.214c.174-.256.775-1.205.776-1.285-.001-.148-.645-.445-.387-.856l1.163-2.57-1.163-2.57c-.247-.906 1.17-1.995-.389-2.998l.069-.547zM118.73 46.007c.474-.09 2.974.177 3.448.364.927.017 4.665 2.572 5.134 3.553 1.586 2.058 2.821 5.238 2.612 8.404a12.033 12.033 0 0 1-.909 3.988c-1.565 3.353-2.711 4.858-4.693 7.383-1.548.522-3.932 1.19-6.537 1.017-4.555-.104-8.931-3.415-10.603-6.135-.997-1.272-1.989-4.412-1.74-6.253a6.52 6.52 0 0 1 .05-.429c.095-.685.361-3.326 1.921-5.773 1.481-2.49 4.223-4.408 6.226-5.091a7.542 7.542 0 0 1-.05-.134c.341-.136 1.788-.32 2.67-.367.706-.196 1.47-.327 2.204-.308.001-.12.063-.208.267-.22zm-.945 5.714a.765.765 0 0 1-.033.21 6.126 6.126 0 0 0-1.137.242l.027.111a1.318 1.318 0 0 0-.1-.088 5.988 5.988 0 0 0-.85.354l-.002-.005a.614.614 0 0 1-.278.118c-.291-.092-1.498-.074-1.579.006-.136.099-.026.5-.142.597-.063.027-1.25.34-1.579.512.149.228.305.45.467.666a6.6 6.6 0 0 0-.7 1.196l-.707-.318c-.628 1.124.52 1.658.135 2.777-.024.081-.045.157-.063.229-.128.553-.2.832-.119 1.701.073.837.427 2.438 1.567 3.623 1.093 1.204 2.857 1.726 3.882 1.103.15.028.301.052.453.07.193.366.461.59.757.704 1.2.442 2.264-.793 2.984-.962.199-.044.444.178.625.105.655-.264 1.265-.959 1.793-1.47l-.58-.516a6.646 6.646 0 0 0 1.147-.937c-.185-.199-.376-.39-.571-.574.285-.117 1.214-.895 1.224-1.005.045-.175-.502-.617-.192-1.006a6.31 6.31 0 0 0 .402-.836 7.014 7.014 0 0 0 .48-2.25 6.844 6.844 0 0 0-2.455-2.07c-.71-.5-1.135-2.521-2.764-1.458a6.047 6.047 0 0 0-2.06-.642 1.08 1.08 0 0 1-.024-.127l-.005-.06z"/><path d="M99.603 34.652a62.03 62.03 0 0 1 3.452.04c4.824.182 6.245.255 12.533.388 10.934.232 37.805 1.164 50.136-.388h3.134c3.276.697 7.153.827 11.018.765 2.872-.095 5.484 2.465 5.477 5.329.147 3.509.325 6.788.229 9.336-.048 1.289-.36 1.975-.387 3.134-.096 4.191.064 9.616 0 14.097h.776l-.389 9.404.776 1.565c-.174 1.879-.776 8.836-.776 9.403.001 1.077.647 3.256.389 6.264l-.157 2.527c-.034 3.113-2.827 5.734-5.778 5.649l-11.663-.392-18.762 1.694c-6.626.434-14.627-.758-21.916 1.007l-10.198.11c-.207.229-.41.456-.595.773-1.434 2.486-3.448 5.691-5.491 7.948l.589.505a50.45 50.45 0 0 1-4.808 4.379c-.092.433-.192.867-.3 1.304-1.076.783-5.273 3.175-5.596 3.342-.274.188-.614.579-1.08 1.027.751 1.144 2.317 3.971 2.621 4.758 1.391 3.268 3.123 7.824 4.206 11.96.929 3.554 1.693 5.361 3.349 7.839.065 4.08 1.059 13.574 1.587 18.389.225 1.668.397 4.994.203 6.643-.113 1.345-.386 9.692-.643 13.764l.143.007a336.48 336.48 0 0 1-.542 3.166c-.128.695-.91-.479-1.039.215-.026.14-.895-.05-.958-.016-1.341.74-1.01.145-2.067.089-.075-.122-.268.103-.353-.024-.251-.377-.499.544-1.054.21.004-.711.005-1.417.003-2.113l-.114.003a2.54 2.54 0 0 0 .114-.143c-.002-.561-.006-1.131-.011-1.705h.006a1.984 1.984 0 0 1 .023-.566c.2-.473.882-2.219.887-2.376.01-.274-.365-.554-.356-.824.007-.146.668-1.903.853-2.39l-.765-.424c.021-.801.035-1.598.046-2.409l.776.011c.184-1.905-1.057-2.357-.768-4.414.166-1.255.237-1.598.324-3.219.192-2.787.629-9.786-1.375-12.68a66.47 66.47 0 0 0-.106-.78c1.354-2.176-.606-4.701-.707-6.298-.02-.331.248-.567.211-.86-.133-1.055-.612-2.357-.845-3.464l-.749.2a77.102 77.102 0 0 0-.271-2.376 66.703 66.703 0 0 0-.856-.148c.038-.49.065-2.337.015-2.472-.089-.255-.876-.561-.889-1.351a70.782 70.782 0 0 0-.689-4.821 73.714 73.714 0 0 0-3.097-3.765c-.946-1.307-.746-3.685-2.854-4.526a72.355 72.355 0 0 1-8.57 2.845c-3.862 1.828-7.717 3.31-11.808 4.587-4.283 1.181-9.787.556-14.468 2.506-3.37.198-6.565.264-9.953.234-1.244 2.124-2.358 4.36-2.91 6.774a809.94 809.94 0 0 1-5.786 9.657c-.967.417.187-1.995-.585-1.256-.26.247-.094-.435-.336-.194-.986-.607-1.573 1.051-1.635-1.669-.005-.125-1.027-.281-.846-.632.894-1.742-1.472.501-.579-1.238a935.667 935.667 0 0 0 4.01-7.881c.93-1.82 6.36-11.765 7.57-13.967a346.527 346.527 0 0 0 8.892-16.845c-.346-.176-.67-.386-.3-.63.2.012.398.019.594.029 2.104-4.297 4.144-8.712 5.93-12.98.636-1.546 1.199-2.982 1.7-4.334a338.4 338.4 0 0 1-1.749-2.068c-.455-.07-.907-.139-1.368-.215a310.356 310.356 0 0 1-5.012-4.773c.18-.185.36-.37.542-.554-3.777-4-5.6-3.972-9.316-8.954-2.109-3.024-2.758-3.913-5.071-8.164a47.406 47.406 0 0 1-1.707-3.643c-.104-.25-.252-.925-.23-1.195.283-5.528 5.208-10.449 10.439-12.868 5.27-2.336 11.465-4.14 16.936-.57.035.033.139.125.17.16a41.49 41.49 0 0 1 2.551 2.393c.515.707.997 1.453 1.429 2.22 1.991 6.284 3.383 14.758 2.427 19.65-.174.95-.573 1.482-.737 2.304-.612 3.119-1.433 7.105-2.451 10.258l.742.223c-.53 1.474-1.09 2.93-1.667 4.364 3.121 2.978 6.088 5.8 8.378 8.031l.1-.101c.859.889 5.083 5.506 5.994 6.567a33.15 33.15 0 0 0 1.433-.792l.392.669c3.152-1.832 3.808-3.212 5.733-5.361l-.118-7.414-.115.036c.04-.201.076-.395.107-.581l-.107-6.621h.006a29.224 29.224 0 0 1-.006-2.2c.174-1.88.777-8.835.776-9.4-.001-1.057-.386-2.081-.387-3.134 0-.568.601-7.524.775-9.398l-.775-1.57v-9.399h.775c.09-4.097-.247-6.44-.516-9.072-.221-2.637 1.902-6.05 5.835-6.134zM50.228 136.201c.046-.034.07-.065.061-.099l-.061.099zm54.337-41.426c-1.657 2.738-3.515 5.364-5.102 6.834-1.2 1.248-5.779 6.052-12.487 9.074-6.688 3.177-14.744 4.25-19.973 4.427l.006.143c-.88.043-4.51-.14-6.672-.306-.355.605-.71 1.208-1.067 1.807a447.365 447.365 0 0 1-5.195 12.846c-.208.452-.438.904-.684 1.36 2.071-.203 4.94-.515 5.68-.64 1.775-.142 11.601-1.497 13.725-2.005 8.199-1.392 19.091-4.923 27.227-10.765 6.903-5.023 9.656-9.132 11.766-14.97.234-.338.474-.708.718-1.107l-.287-.212.464-.623c-.272-.405-1.097.532-1.318-.013-.13-.324-.157-.435-.389-.774-.402-.589-1.177-2.327-2.714-1.538l-.156-.116c.597-1.594-.836-.807-1.009-1.235-.035-.086.117-.363.076-.427-.15-.232-.514-.304-.698-.52l-.463.622-.235-.658-.541.565c.011-.209.026-.946-.002-.97-.055-.037-.547.397-.542.08l-.128-.879zm-34.863 1.342c-.923 1.76-2.059 3.905-2.17 4.154-.308.757-.313 2.472-1.432 4.416a276.434 276.434 0 0 1-2.564 4.682 69.519 69.519 0 0 0 3.222-.139v.005c.402-.043.852-.072 1.373-.077 1.12.152 5.512.213 5.825.117.666-.114 1.22-.612 1.842-.744.276-.018 3.44-.379 5.077-.672a254.929 254.929 0 0 0-1.562-1.533l-.063.099a10.036 10.036 0 0 0-.219-.373 289.297 289.297 0 0 0-3.452-3.293l.004-.003a16.019 16.019 0 0 1-1.138-1.104c-.837-1.07-4.08-4.98-4.385-5.257a2.846 2.846 0 0 0-.358-.278zm110.174-55.465c-16.875-.376-38.795-.41-51.755-.142-6.24.128-18.928.203-25.066 0a213.67 213.67 0 0 0-3.453-.068c-.145-.03-.382.099-.397.344a5544.437 5544.437 0 0 0-.2 44.173h.143c-.034 1.096-.151 5.146-.244 8.332.304-.43.642-.919 1.027-1.49 1.314-1.98 3.084-5.089 4.958-8.87.966-1.877 1.894-3.908 3.369-5.998.778-1.037 1.688-2.184 3.393-2.913 1.729-.725 3.585-.36 4.873.212a3.7 3.7 0 0 1 .457.277c3.876 3.253 4.478 7.146 5.36 9.753.086.744.142 1.547.165 2.296-.859 3.594-1.441 8.013-2.367 11.769 2.99-.18 6.381-.383 7.37-.444 2.932-.183 18.347-.597 21.927-.62 8.683-.053 19.506-.188 30.452-.333.213.027.456-.162.472-.414.06-4.03.12-8.04.18-11.925.212-13.668-.097-21.068-1.164-31.335.206-3.252.379-7.55.517-12.47.049-.002.057-.1-.017-.134zm-65.638 37.872c-.642-.233-.655-.169-1.116.112-.523.383-1.214 1.374-1.752 2.358-1.124 2.056-2.038 4.278-2.861 6.142a39.382 39.382 0 0 1-1.364 2.972c.398.505.848 1.037 1.258 1.538.551.674 1.102.7 2.247.223.171 1.29 1.823 2.793 2.951 3.165.385.127 1.058.535 1.241.925.026.055.094.137.187.241a29.202 29.202 0 0 0 1.277-4.679c.892-4.394.466-10.574-2.068-12.997zm-48.906-25.62c-1.881-1.608-6.698-1.09-9.93.306-3.455 1.396-6.152 3.687-7.374 5.788-.48.799-.938 1.84-1.093 2.994 1.778 3.675 4.434 7.52 6.102 9.77.925 1.929 7.362 8.288 14.14 14.798 1.148-4.063 1.647-7.62 1.786-11.85 1.33-4.988 2.84-15.27-3.631-21.806z"/><path d="M106.857 3.04c1.129-.301 4.077 1.166 4.508 1.241 2.247.373 5.805-.533 7.905-.741-.201 1.674 1.778 1.113 2.885 1.882 2.272-1.233 4.522.462 6.949-.048.346-.073.918-.893 1.266-.964.871-.188 5.638-.573 6.348-.397.479.113.995 1.265 1.881 1.015 3.707-.182 8.799-.098 12.036.546 2.353.463 2.995-.953 3.881-.697 3.202 1.25 7.189 1.617 10.135 1.46 1.167-.068 3.456.824 3.965 1.72.137.248-.205.613-.097.72 1.202.164 2.168-.493 3.531.019.621.238.546 1.374 3.006 1.467 1.316.054 2.912.13 5.016.933 2.171.821 6.766 1.842 9.625 1.322 3.784 3.022 8.355 2.889 12.014 5.485.231.164 1.312.603 2.414 1.095l.166.098c2.349 1.415 3.273 3.133 3.527 3.39 3.383 4.966 3.043 9.705 5.26 14.094-.562 3.662.867 7.566.53 10.941.383.366.767.738 1.149 1.115.07 2.753-.078 5.722 1.566 8.138-1.078 3.046.422 5.63-.041 8.853-.214 1.546 1.164 2.165 1.192 2.427-1.691 4.043.482 9.803-.5 13.279.014.256 1.366.883 1.107 2.471-.093.578-1.408 1.294-.827 2.863l.968-.046a852 852 0 0 1-.791 4.124c.339.407.677.817 1.015 1.227-1.376 1.941-.638 4.06-.289 6.284.068.42.67 3.276.566 3.757-.701 3.335-.389 11.423.068 13.831.308 1.571.228 2.664.439 3.781 1.143 6.018.73 12.597-.125 17.652-.919 5.506-.659 10.585-1.546 14.465-.564 2.451-.825 5.513-.808 7.553.016 3.759-.71 7.061-2.009 10.647-1.156 3.125-2.624 6.847-2.924 9.783-.666 6.081-3.27 11.484-4.959 17.691-.142.572-2.089 2.459-2.485 3.378-1.013 2.546-1.854 3.537-3.918 4.913a30.36 30.36 0 0 1-.84.501c-1.645 1.348-10.975 5.183-12.06 5.667-2.761 1.891-6.259 3.127-8.714 4.29-2.774-1.463-4.848 1.341-7.345 2.47-.711-.166-1.38-.348-2.07-.529-3.178 1.434-8.132.578-11.326 1.462-4.472 1.281-12.258.901-16.984 1.01-.626.352-1.222.701-1.839 1.047-2.228-.707-4.803-.816-6.931-.315-2.889.671-5.325.113-7.556.456-2.166.327-3.458-.838-5.642-.64-2.555.226-3.724-.491-5.563-1.712-1.792-.036-2.985.896-4.677-.296l-.068.965c-1.939.275-3.695-1.05-5.27-.903-3.377.303-1.826-.377-3.071-.767-.69-.201-7.239-.901-8.075-.879-.215.01-1.76.722-1.979.73-2.917.119-6.563-.675-8.76-.728-2.946-.069-5.496-1.555-8.217-.362-1.204-1.117-2.784-.789-4.241-1.259-2.788-.903-5.446.266-6.68-1.814-.647.031-1.295.06-1.942.087-.548-.447-1.093-.895-1.636-1.344-2.424.035-4.435-1.048-6.944-.596-.739-.509-1.475-1.02-2.208-1.534-2.543 1.635-2.825-.512-3.646-.922-1.205-.601-2.735-.377-3.886-.026-1.13-.64-2.255-1.287-3.372-1.938-1.78.167-3.574.317-5.371.453a268.997 268.997 0 0 1-1.62-2.725c-.407-.021-.774-.083-1.031-.212-.528-.263-2.305-1.919-3.795-3.644.013.133.025.266.04.398l-.812.529c-1.087-1.541-2.477-2.672-3.224-4.674-1.406-3.752-3.083-6.726-3.618-9.777-.292-1.408-2.996-6.392-3.957-7.514.133-.698.27-1.398.409-2.101-1.087-2.091-2.009-5.691-2.986-7.833.216-.501.442-.963.664-1.444-2.41-6.898-1.193-14.181-3.111-20-.197-.595-.137-1.501-.299-2.186l.961-.127c.474-6.201-2.754-10.677-1.727-16.575-1.932-3.438-.768-7.597-1.647-11.877-.045-.214-.991-1.647-1.033-1.863-.527-2.66-.61-5.997-1.115-8.855-.515-2.837-.255-7.693.166-10.167.234-1.411-.157-2.728-.808-3.86.021-.427.042-.854.065-1.28.975-1.21.2-3.685 2.147-3.373-.048-1.536.374-2.946 1.281-4.04-1.175-2.8.58-3.965 1.04-5.614.499-1.84.584-7.276.505-9.028-.022-.361-.737-1.051-.753-1.407-.038-.847.53-2.213.553-3.158.002-.224-.597-1.858-.588-2.08.198-5.684 3.274-9.874 3.638-14.47.013-.45 1.785-4.351 2.61-4.653-.072-3.676 3.534-7.681 4.571-10.243a52.605 52.605 0 0 1 8.915-14.885l1.693-1.115c1.902-1.193 3.993-2.395 5.973-3.57.598-.35.944-.172 1.453.012.332-.452.623-.888.945-1.331 1.736-.54 4.857-.395 6.347-1.874.72.139 1.463.277 2.17.428.535-.47 1.08-.94 1.633-1.408 5.571-1.21 14.033-1.906 19.013-3.772.639-.246 3.49.747 5.19.195 2.752-.9 4.889-.893 6.895-1.396 2.695-.693 8.2-1.266 10.745-1.144 1.26.054 2.378 1.062 3.759-.814 1.081.235 2.163.473 3.246.716 2.826-1.978 5.92-.759 8.811-1.53zm-1.486 7.355c-2.618.38-4.672.79-7.482.498-.448-.053-5.75.902-6.182 1.006-2.687.603-3.885-.3-5.688-.406-2.714-.154-4.408 1.918-6.277.24-1.003.45-1.997.906-2.98 1.364-4.391-.194-9.388-.419-13.127 1.076-2-1.537-3.977.737-6.9.854-1.779.071-2.094.531-2.454.533-3.236.038-8.814 2.704-13.446 3.606-2.842.533-5.607 2.826-8.16 3.6l-.083.027-.45.296c-3.034 2.23-3.288 7.155-5.28 9.467-.86.92-2.207 5.313-2.516 6.343-.275.79-.91 1.7-1.192 2.5l-.882-.4c.022.345.045.69.07 1.035-1.45 1.149-1.908 6.77-2.415 7.654-1.14 1.824-2.457 5.151-2.73 7.575-.026.241.59.711.098 1.604-.29-.176-.579-.353-.867-.53.304.923.73 2.22-.104 2.531.222.478.447.955.673 1.43-1.176 3.354-.293 6.009.787 8.855-1.735 4.19-.533 11.296-2.589 15.22.653 3.076-1.327 4.98-1.038 8.571.164 2.01-.27 5.173-1.208 7.378.698 2.524 1.041 3.039.439 5.568-.303 1.291.907 1.797.014 2.473.493.819.99 1.634 1.489 2.445-.315.416-.63.834-.943 1.252-.115.6.7 1.204.068 2.468.335.402.671.803 1.008 1.202-.653 3.915-.312 10.327.835 14.132.137.46.95.353.105 1.23.357.381.715.76 1.073 1.137-.748 2.139 1.22 3.215-.477 4.989.364.374.73.746 1.095 1.116.537 3.693 1.163 6.502 1.256 9.709.379.356.76.72 1.14 1.076-.274 2.142.804 4.783.727 7.309-.032 1.002-1.157 1.408-.153 4.359.356 1.05.293 1.638.373 1.82.877 1.97.82 5.477.836 7.964.004 1.156 1.207 1.64 1.238 2.827.033 1.36-.599 1.851 1.285 2.791-.345 1.829 2.208 4.458 2.463 6.15.04.249-.485.619-.05 1.312 1.59 2.469 1.01 3.561 2.189 5.521 1.045 1.662.774 2.834 2.009 4.177.698.746.473 1.462.342 1.98.998-.23 1.692-.664 2.082.115.319.639 1.454 1.684 2.493 2.488.376-.118.69-.2.886-.187 2.331.158 4.675 1.191 6.866.453.306.419.616.838.925 1.256 1.378-.399 3.404.126 4.976.306.235.027.514-.368.711-.319.204.057 2.88 1.643 3.324 1.818 5.068 2.028 11.256 1.398 16.146 3.486.394.178 5.942.608 7.31.827.209.039 3.563-.39 3.77-.362.153.024.316.716 1.128.667.256-.016.481-.415.677-.385.127.019.484.832 1.439.707l-.143.957c1.317.042 2.486-.395 4 .083 1.103.348 1.962 2.085 3.456 1.921 2.945-.33 5.626.887 8.622.003.371.362.751.724 1.127 1.085 6.057-1.453 13.856 1.382 19.589.312.707-.13 1.215.814 2.416.554 3.451-.756 3.144 1.104 6.705.08 2.517.984 6.832 2.504 9.183 1.275.622.299 1.229.596 1.87.889 4.825-1.449 10.266-.823 14.514-2.175 1.324-.418 2.246-.16 3.156.56 4.301-1.678 11.507-1.403 15.869-3.742 3.175-1.685 6.785-1.658 9.497-3.297 1.14-.611 6.33-1.865 6.671-2.286 1.405-1.341 3.546-2.44 5.342-3.743 1.252-.85 2.462-2.256 2.778-3.482 1.364-.148 2.506-1.318 2.11-2.724 2.213-1.577 4.589-7.279 4.743-9.782.294-3.638 1.104-7.978 1.157-11.037.078-4.095 2.021-8.491 1.569-12.791-.085-1.047 2.144-5.63.85-7.343.385-.592.767-1.171 1.147-1.747-1.775-3.494.311-6.905-1.132-9.985.377-.798.751-1.602 1.124-2.411-1.316-3.485-.183-7.808.059-11.748-.599-.669-1.378-4.702-1.315-4.982.832-3.453.663-8.056 1.087-11.717.474-4.049.303-8.457.819-11.766.331-2.125.139-5.712-.23-7.426-.451-2.178-.253-8.989-.029-10.556-.358-.6-.718-1.196-1.079-1.788.363-2.496.095-6.216-.624-8.607.27-.653.538-1.307.805-1.957-.988-2.877-1.857-8.297-.645-11.1-.232-.588-.471-1.215-.708-1.812l.805-1.358c-1.77-3.644.165-7.704-1.306-11.689-.794-2.053.796-2.753-.025-5.043-.642-1.711-.757-3.335-.873-5.504-.021-.537-.993-1.033-.742-2.412-.725-.642-1.411-1.122-2.193-1.77.11-1.745-1.838-3.728-2.858-4.03l.09.052c-.93-.382-1.812-.853-2.478-1.638-1.534.136-4.288-.323-5.199-1.628-.669.1-1.343.206-2.02.319-3.834-1.421-7.679-3.105-11.788-2.654-5.289-2.18-11.723-3.73-16.623-5.079-2.534-.69-3.978-.53-6.133-1.106-1.114-.296-2.818-.102-4.03-.326l-.07.965c-2.702-1.517-5.941-.04-8.36-.499-3.649-.69-6.304-.296-9.293-.783-4.772 1.79-11.637 1.394-16.771.543-4.34-.732-9.323.186-13.165-1.879zM24.557 198.76c-.193-.364-.623-.142-.428.226.195.366.62.135.428-.226z"/></g></svg>