<svg xmlns="http://www.w3.org/2000/svg" width="225" height="224" fill="none" viewBox="0 0 225 224"><g fill="green"><path d="M116.503 118.501c-.09 3.123-.152 6.243-.18 9.142 1.224.282 2.378.538 3.438.766a52.004 52.004 0 0 1-.348 5.189 263.933 263.933 0 0 0-6.228-1.745c-.945-.283-1.754-1.222-1.693-2.205.129-4.166.122-8.418-.222-11.741l3.45-.207 1.783.801zM108.615 97.072c.946.1 1.918.183 2.946.255.969.378 2.128.793 3.431 1.234 1.352.289 2.332 1.742 2.372 3.125-.282 3.259-.511 7.35-.684 11.669a257.405 257.405 0 0 1-5.315-1.363c.6-2.58.39-5.595.225-8.251-.626-.23-.915-.604-1.504-.785a43.743 43.743 0 0 0-1.677-.472c.139-.364.388-.704.807-.998.014-.194.027-.391.042-.586-.593-.988-.723-2.383-.643-3.828zM153.52 119.442c-.277 1.441-.595 3.148-.602 3.354-.018.583.348 1.16.329 1.74-.005.165-.21 1.296-.433 2.481-.076.944-.81 2.127-1.702 2.446-1.058.256-2.162.515-2.647.625l-.506 1.046-1.559.639c-.636-1.386-1.025-2.877-1.34-5.021l-.066-.435c.891-.356 1.793-.714 2.695-1.076.078-1.928.149-3.799.213-5.507a51.352 51.352 0 0 1 5.618-.292z"/><path fill-rule="evenodd" d="M146.158 93.172c.948-.787 3.356-1.565 4.753-1.338.117.013.226.029.325.048.519.092 2.521.314 4.362 1.513 1.874 1.14 3.294 3.22 3.801 4.726l.134-.049c.097.275.197 1.45.199 2.102l.262 1.571c.133-.003.233.043.249.207.083.356-.049 2.272-.179 2.645.013.717-1.939 3.601-2.704 3.951-.918.682-2.115 1.266-3.419 1.604l-.01 2.33.115-.017c-.044.11-.083.216-.117.317l-.007 1.244c-.534-.002-1.066-.172-1.559-.681l-.585.05c-.897.754-2.287 1.101-3.754 1.245.136-1.56.326-3.747.414-4.735a8.106 8.106 0 0 1-.526-.209c-2.502-1.236-3.636-1.992-5.791-3.409-.33-1.24-.769-3.081-.599-5.05.147-3.44 2.596-6.732 4.636-8.065zm6.532 4.129c-.658-.44-1.076.741-1.653.395a3.32 3.32 0 0 0-.126-.06c-.307-.133-.466-.205-.97-.21-.479-.008-1.471.084-2.203.755-.738.635-1 1.768-.308 2.391a2.965 2.965 0 0 0-.037.248c-.354.089-.571.242-.684.417-.434.741.649 1.289.661 1.709.006.123-.24.327-.206.44.122.412.584.737.865 1.067l.519-.577c.102.265.241.528.419.778.168-.201.329-.408.482-.62.007.218.341.984.412.992.105.026.405-.559.593-.275.136.135.288.262.457.379a4.05 4.05 0 0 0 1.38.608 3.819 3.819 0 0 0 .962-1.843c.159-.419 1.856-.407.621-1.571.208-.308.368-.666.459-1.069a1.63 1.63 0 0 1 .158-.018 1.196 1.196 0 0 1-.18-.017 3.263 3.263 0 0 0-.189-.603l-.112.024c.036-.022.068-.042.095-.062a3.04 3.04 0 0 0-.231-.429l.005-.001a.17.17 0 0 1-.063-.144c.133-.17.358-.976.309-1.031-.057-.08-.416.084-.47.023-.007-.026.012-.878-.053-1.137-.202.17-.397.346-.584.529a3.562 3.562 0 0 0-.648-.382l.32-.706zm1.868 3.934.066.003v-.009c-.021.002-.043.006-.066.006zM76.472 115.238c.152.941.403 1.872.81 2.776l.149 6.535c.824.212 1.853.57 2.835 1.21 1.874 1.139 3.293 3.219 3.801 4.726l.134-.048c.123.349.255 2.155.179 2.49-.015.157-.108.198-.232.193l.258 1.031c.246-.057.48-.095.505.166.083.354-.05 2.271-.178 2.644.012.716-1.94 3.601-2.705 3.951-1.605 1.191-4.059 2.091-6.449 1.889a9.048 9.048 0 0 1-2.999-.74c-2.502-1.237-3.636-1.993-5.79-3.41-.331-1.24-.77-3.081-.6-5.049.147-3.441 2.597-6.733 4.636-8.066.17-.141.388-.282.638-.417-.004-.024-.01-.049-.013-.076-.109-.932-.645-5.739-.754-6.67-.054-.462-.129-1.491-.209-2.769a51.59 51.59 0 0 1 5.984-.366zm.886 14.427c-.658-.441-1.076.742-1.653.396a2.485 2.485 0 0 0-.126-.061c-.307-.133-.466-.205-.97-.209-.48-.009-1.472.084-2.203.754-.739.635-1 1.769-.308 2.392a3.393 3.393 0 0 0-.037.248c-.354.088-.57.241-.684.417-.434.74.649 1.289.661 1.709.006.122-.24.326-.206.439.122.412.584.737.865 1.067l.519-.577c.102.265.241.528.419.779.168-.202.33-.409.482-.62.007.216.34.983.412.992.105.026.405-.56.593-.276.136.135.288.262.457.379.392.271.856.486 1.38.609.523-.566.84-1.219.962-1.844.16-.419 1.857-.406.621-1.57.208-.309.368-.667.459-1.07.056-.009.109-.015.158-.017a1.218 1.218 0 0 1-.18-.018 3.23 3.23 0 0 0-.189-.602l-.112.023c.036-.021.068-.042.095-.062a3.089 3.089 0 0 0-.231-.428l.005-.002a.167.167 0 0 1-.063-.144c.133-.171.36-.978.309-1.031-.057-.079-.417.085-.47.023-.007-.027.012-.879-.053-1.137-.202.17-.397.347-.584.529a3.542 3.542 0 0 0-.648-.382l.32-.706zm2.363 3.813c-.129.044-.277.115-.495.122.157-.001.281.03.388.063z" clip-rule="evenodd"/><path d="M78.211 97.67a58.988 58.988 0 0 1-.278 1.322l.82.292-.085 2.397.769-.098c.015.214.04.436.07.662l-3.606 1.731.334 1.986c.143 1.163.117 2.411.078 3.698a2.246 2.246 0 0 1-.736-.517l-.585.049c-1.107.93-2.96 1.241-4.786 1.315a160.17 160.17 0 0 1-.168-4.207 663.665 663.665 0 0 0-.064-3.695c-.124-1.226.846-2.513 1.99-2.972 1.973-.613 4.076-1.276 6.247-1.963zM167.487 113.626a.573.573 0 0 1-.103.19c.032-.065.067-.128.103-.19z"/><g fill-rule="evenodd" clip-rule="evenodd"><path d="M109.024 33.177c5.134-.055 9.68 1.25 12.623 2.394.845.609 1.618 1.22 2.357 1.84.114.08.435.32.529.423 1.217 1.581.859 1.805 1.019 2.355.052.464.055.892.04 1.23a15.622 15.622 0 0 1-.219 2.041c-.213 1.28-.508 2.48-.861 3.735-.704 2.459-1.628 5.082-3.011 8.183-2.587 5.819-6.449 11.422-10.263 16.158.962 1.23 1.966 2.457 2.972 3.633a74.9 74.9 0 0 0-.018 1.168c.794.675 3.834 3.106 4.047 3.314.396.421.511 1.1.926 1.532.187.211 3.354 2.541 4.205 3.1.354.302.638.584.878.848l.003-.004c.499.501.979.977 1.464 1.453 2.168.296 4.315.567 6.511.82 1.939-.546 3.92-1.12 5.995-1.736 6.816-1.08 17.231-3.017 28.797-5.289 1.837-.424 3.281.809 3.318 2.694-.109 8.285-.171 17.16-.191 25.753 2.603 1.306 3.146 3.052 4.743 4.49.116 1.928.248 4.819.125 7.616-.139 2.341-.078 4.898-1.593 7.309-.461.771-1.699 1.824-2.939 2.187-.099.032-.198.057-.294.084.028 3.978.068 7.651.121 10.885.023 1.424.044 3.11.062 4.988.025 1.26-.985 2.444-2.213 2.728-6.548 1.443-15.251 3.298-21.718 4.582 1.8 7.023 3.555 14.552 4.705 21.767.409 3.105.88 5.732.448 8.82-.161 1.007-1.159 1.792-2.177 1.854-6.349.251-11.105.764-17.059 1.71-11.814-.591-40.73.029-55.37.829l-.285.016c-1.698.102-2.87-1.225-2.803-2.924.17-5.208 1.52-15.205 2.658-19.967.288-1.795 1.62-7.557 3.37-14.468-1.204.253-2.354.493-3.44.722l.029.14c-2.12.391-13.064 2.436-15.19 2.829-3.327.614 1.784-1.334-1.542-.72-.53.098-.36-.505-.36-.772a1.843 1.843 0 0 1-.045-.118l-.007-.003c-1.164-.123-1.772-.237-2.05-.36-.241.238-.513-.014-1.22-2.013-.068-.182-1.03.461-1.048-.218-.091-3.381-1.027 2.02-1.117-1.361-.058-2.162-.333-13.294-.39-15.448-.02-.731-.033-2.07-.044-3.785-2.15-.475-3.277-1.745-4.137-2.616-.882-.951-1.62-1.797-2.51-2.809-.135-1.999-.285-5.024-.162-7.957.138-2.449.09-5.1 1.614-7.571.464-.795 1.73-1.901 3.021-2.285a7.585 7.585 0 0 1 2.211-.377l.007-.473c.083-4.786.163-10.083.24-15.684-.026-1.299 1.015-2.519 2.281-2.811 11.091-2.174 23.386-4.613 35.203-6.951.195-.045.737-.045.935-.013l1.015.196c3.562-1.644 5.759-5.303 8.271-7.522.839-.675 1.667-1.363 2.486-2.06-1.658-2.265-2.841-4.042-3.316-4.738-2.137-2.913-5.387-9.683-6.302-13.327-.944-3.445-2.147-8.081-1.6-13.542.006-.038.021-.15.03-.188 1.045-2.67 1.734-2.297 2.419-2.932a15.353 15.353 0 0 1 1.985-1.038 25.729 25.729 0 0 1 3.948-1.342 32.685 32.685 0 0 1 7.883-1.004zM85.95 150.068c-.282 1.131-.56 2.263-.829 3.394l-.755-.18c-1.507 5.753-.584 7.295-2.09 13.57-.855 3.732-1.136 4.829-1.957 9.74-.295 1.822-.67 4.207-.999 6.933 9.654-.058 21.21-.337 27.688-1.545l2.516-.073c6.217 1.456 14.999-.288 20.136-.196 1.036.019 1.596.315 2.528.314 3.368-.001 7.718-.287 11.318-.328l-.023-.775 2.498.056c.165-1.386-.125-6.639-.248-7.107-.159-.816-1.127-2.375-1.401-4.745-.716-4.848-1.595-9.684-2.543-14.541-1.475.272-4.602.891-8.78 1.733-.21.049-.791.049-1.004.015-10.062-1.909-26.24-4.915-40.206-7.482l-5.849 1.217zm9.296-63.112c.1.661.079 4.126 0 4.93-.07.719-.137 1.502-.203 2.328 3.376.977 6.049 1.648 8.552 2.124a52.685 52.685 0 0 1-.496 4.795c-.179-.049-.356-.096-.53-.147l-.196.75-4.916-1.688-1.031.532c-.346-.155-1.03-.457-1.777-.783l-.178 2.654c-.212 3.072.096 4.736 1.163 7.043-.933 3.3-1.152 11.394-.776 15.495.128 1.403.203 4.255 0 5.635-.169 1.146-.325 8.271-.32 11.764h.142c-.026.189-.102.77-.177 1.354.126.017.25.035.376.058.71.128 9.301 2.298 11.612 2.894l2.101-.407 11.75 2.131-.139.763a84.233 84.233 0 0 0 8.737 1.289 83.281 83.281 0 0 0-.035-.498h.005a1.497 1.497 0 0 1-.005-.494c.174-.423.777-1.987.777-2.114-.002-.237-.388-.467-.389-.704.001-.13.601-1.691.775-2.112l-.775-.354v-2.112h.775c.163-1.674-1.081-2.045-.775-3.874.114-.679.183-1.059.253-1.595-.931-.293-1.955-.604-3.649-1.097-.358-.104-.746-.221-1.164-.345-.042-.722.116-1.438.869-2.016l.017-.587c-.521-.788-.743-1.864-.797-3.023 1.732.409 3.598.869 5.287 1.311.146-2.457.078-5.138-.816-6.735v-.704c1.635-1.727.148-4.197.389-5.634.048-.289.36-.444.386-.705.097-.942-.063-2.161 0-3.169h-.775l.389-2.113-.777-.352c.174-.422.777-1.987.777-2.114-.003-.242-.647-.732-.389-1.407l1.164-4.227-1.164-4.226c-.246-1.492 1.171-3.281-.388-4.93l.183-2.355a485.052 485.052 0 0 1-8.151-1.471l-.139.763-11.687-2.514-2.095.41c-2.318-.598-10.912-2.769-11.619-2.896a5.551 5.551 0 0 0-.224-.035l.073.514zm69.699-.95c-7.795 1.505-15.977 3.912-21.55 4.912-1.613.29-2.531.163-3.977.44-1.335.256-2.766.551-4.25.864.102.716.285 2.015.331 2.318.1.661.079 4.124 0 4.93-.289 2.945-.53 6.987-.775 10.565-.212 3.072.096 4.736 1.163 7.043-.78 2.759-1.059 8.866-.91 13.192a749.09 749.09 0 0 0 4.859-1.904c-.056.462-.114.916-.145 1.127l.841.225.108 2.396.758-.16c.047.307.115.628.19.954-2.507 1.15-3.34 2.34-6.359 3.492-.014.696-.048 1.338-.118 1.808-.168 1.146-.324 8.271-.32 11.764h.143l-.015.108a94.766 94.766 0 0 1 5.737-1.2c6.037-1.083 7.818-1.383 15.664-2.896 2.39-.461 5.393-1.029 8.8-1.677.077-4.289.148-9.016.194-13.87a15.686 15.686 0 0 1-3.028-.851c-2.26-.785-4.63-3.094-5.264-4.997l-.132.054c-.195-.435-.391-2.586-.302-2.949.002-.021.007-.04.011-.058l-.234-1.283c-.163.024-.291-.007-.31-.216-.078-.396.018-2.472.119-2.867-.008-.749 1.611-3.958 2.239-4.494 1.589-1.67 3.654-3.746 6.821-4.498-.126-5.642-.356-10.733-.745-14.66v-3.983a48.23 48.23 0 0 0 .456-3.628zM65.087 90.65l-6.013 1.573.678 13.91c.016.551.023 1.109.025 1.674l.086.033c2.358.824 4.798 3.234 5.447 5.203l.132-.054c.135.302.271 1.406.32 2.212.125.676.243 1.488.286 2.228.13-.006.229.043.245.23.079.411-.027 2.565-.133 2.974.006.775-1.662 4.117-2.31 4.679-1.122 1.199-2.483 2.602-4.287 3.623.115 1.706.298 3.401.578 5.071l-.217 15.713 6.464-1.444-.069-.102c.26-.014.507-.031.745-.049l8.211-1.834.001.005c.786-.192 1.68-.387 2.736-.58a1132.62 1132.62 0 0 0 10.767-1.525l-.012-.191-.116.008c.04-.045.076-.089.107-.131l-.107-1.488h.006a1.487 1.487 0 0 1-.006-.494c.174-.423.777-1.987.777-2.114-.002-.237-.387-.467-.388-.704 0-.13.602-1.691.775-2.112l-.775-.353v-2.113h.775c.163-1.674-1.08-2.045-.775-3.874.182-1.084.254-1.404.388-2.817.232-2.458 1.163-8.498-.388-11.27v-.704c1.635-1.727.147-4.197.388-5.634.048-.289.361-.444.387-.705.097-.942-.063-2.161 0-3.169h-.775l.388-2.113-.777-.352c.174-.422.777-1.987.777-2.114-.003-.242-.646-.732-.388-1.407l.105-.38c-1.649.374-3.297.75-4.946 1.125-.369-1.232-.576-2.588-.694-4.393l-.047-.687 6.174-1.966-.592-2.151c-.247-1.492 1.17-3.282-.389-4.93l.005-.075-23.57 3.768zm102.384 22.423c-.077.007-.073.643-.366.457-.644-.228-1.657-.136-2.629.144a9.63 9.63 0 0 0-1.047 2.757c-.295.788-2.147 1.301-.929 2.7a6.621 6.621 0 0 0-.533 1.769 1.003 1.003 0 0 1-.205.028.869.869 0 0 1 .227.027c.045.324.117.614.207.861l.112-.025c-.036.025-.066.051-.093.074.076.198.164.368.261.511l-.005.002c.042.035.07.082.071.148-.131.179-.261 1.026-.188 1.082.075.078.413-.13.482-.07.002.03.239.944.419 1.216.179-.198.352-.4.517-.607.322.154.686.288 1.079.396l-.206.748c1.035.422 1.451-.774 2.554-.413.11.033.213.06.302.085.447.121.751.187 1.208.197.407-.069.555.365 1.06-.624.414-.937.46-2.496.026-3.608a3.034 3.034 0 0 0-.481-.85c-.006-.168-.013-.34-.021-.508 1.584-1.372-.158-3.029-.182-3.919-.004-.194.267-.38.24-.553-.096-.626-.555-1.261-.785-1.685l-.635.445c-.05-.298-.099-.523-.133-.699a4.404 4.404 0 0 0-.311.467c.067-.179.104-.42.014-.516-.013-.022-.026-.036-.03-.037zm-110.02-.957c-1.1-.439-1.531.754-2.706.39-.113-.032-.217-.058-.308-.082-.484-.122-.802-.189-1.301-.189-.435.076-.654-.31-1.177.769-.434 1.019-.482 2.658-.052 3.835.123.344.284.65.487.91.005.178.012.36.021.537-1.581 1.445.174 3.206.213 4.156.007.207-.262.397-.232.582.106.663.584 1.349.837 1.81l.637-.441c.066.323.135.571.192.761a4.17 4.17 0 0 0 .381-.563c-.078.178-.13.524-.006.639.015.023.03.036.035.036.085-.009.096-.644.415-.466.696.212 1.76.086 2.776-.234.544-.929.933-1.918 1.155-2.888.329-.84 2.213-1.427 1.011-2.891.118-.266.218-.537.304-.812.015-.524.054-1.158.127-1.709a4.07 4.07 0 0 0-.113-.4 4.546 4.546 0 0 1-.113.026 1.18 1.18 0 0 0 .093-.08 2.998 2.998 0 0 0-.278-.576l.004-.002a.237.237 0 0 1-.08-.168c.126-.196.22-1.096.144-1.156-.081-.086-.428.114-.504.047-.006-.037-.288-.988-.482-1.265-.184.194-.362.395-.532.599a6.981 6.981 0 0 0-1.155-.428l.207-.747zm104.173 8.828a.815.815 0 0 1 .116-.015.85.85 0 0 1-.116-.01zm-54.085-45.04c-.56.63-1.109 1.237-1.642 1.814-.703.826-2.779 2.809-4.818 4.672 5.61 1.083 10.377 1.957 14.729 2.683-2.457-2.506-5.126-5.38-7.464-8.199a98.243 98.243 0 0 1-.805-.97zm9.901-35.434c-2.86-1.116-8.638-3.468-12.412-1.203a24.64 24.64 0 0 0-1.548.25c-1.008-.054-2.21.052-3.449.363-.618.156-1.256.369-1.826.628a5.955 5.955 0 0 0-.745.398c-.616 6.172 2.756 13.547 4.568 16.85 1.621 2.988 2.083 3.589 3.591 5.749 1.289 1.758 1.821 3.002 2.352 4.198.435-.413.869-.83 1.298-1.252 1.869-2.926 3.56-5.95 4.956-9.025.601-1.502 1.699-2.199 1.98-2.732.173-.265 1.213-3.862 1.349-4.823.338-.158.674-.316 1.008-.477.439-1.595.758-3.175.903-4.726l.764.136c.108-.732.211-1.529.244-2.264a8.285 8.285 0 0 0-.01-1.032c-.482-.28-.956-.527-1.411-.729-.551-.242-.992-.102-1.612-.31z"/><path d="M120.408 4.147c.43-.061 3.43-1.432 4.55-1.093 2.862.864 6.011-.25 8.759 1.821 1.089-.206 2.184-.407 3.275-.604 1.323 1.922 2.466.952 3.727.942 2.562-.032 8.032.732 10.719 1.525 1.957.57 4.142.65 6.834 1.647 1.683.615 4.587-.266 5.208.002 4.916 2.055 13.349 3.088 18.875 4.539.536.492 1.063.985 1.58 1.478.702-.123 1.461-.227 2.186-.335 1.433 1.546 4.557 1.542 6.276 2.164.302.458.576.908.885 1.374.518-.159.874-.32 1.455.058 1.925 1.267 3.95 2.565 5.794 3.852l2.319 2.01c2.929 5.59 4.441 10.85 5.508 16.313.539 2.725 3.407 7.094 2.829 10.636.779.472 2.008 4.372 1.981 4.838-.169 4.645 2.458 8.903 2.233 14.551-.008.23-.725 1.799-.738 2.008-.047.916.431 2.285.342 3.137-.038.354-.793 1.002-.836 1.363-.189 1.755-.382 7.126.048 8.99.39 1.627 2.097 2.86.831 5.62.873 1.136 1.249 2.49 1.162 4.037 1.954-.261 1.116 2.185 2.066 3.412l.039 1.264c-.673 1.096-1.087 2.406-.874 3.815.382 2.479.596 7.284.075 10.113-.516 2.836-.594 6.16-1.109 8.816-.041.216-.979 1.646-1.023 1.86-.853 4.271.362 8.405-1.52 11.872 1.119 5.861-2.016 10.385-1.396 16.583l.963.104c-.146.686-.064 1.588-.245 2.185-1.776 5.871-.351 13.101-2.559 20.064.237.472.475.932.704 1.429-.914 2.169-1.733 5.794-2.764 7.918.158.699.313 1.397.464 2.091-.929 1.152-3.513 6.205-3.784 7.63-.479 3.073-2.105 6.092-3.523 9.882-.76 2.027-2.17 3.166-3.31 4.711l-.799-.547c.032-.236.058-.474.086-.711-.152.164-.307.323-.465.479-.734 1.144-1.542 2.03-2.709 2.23-.576.395-1.149.745-1.698 1.052-.634.966-1.274 1.932-1.925 2.893-1.79-.227-3.571-.471-5.345-.733-1.153.59-2.312 1.174-3.476 1.75-1.128-.415-2.65-.725-3.888-.196-.844.362-1.251 2.488-3.694.705-.764.468-1.532.934-2.302 1.397-2.476-.605-4.554.349-6.973.157-.571.413-1.144.825-1.719 1.235a457.85 457.85 0 0 1-1.936-.214c-1.375 1.993-3.943.648-6.795 1.356-1.488.369-3.04-.069-4.32.96-2.641-1.381-5.274-.085-8.229-.231-2.19-.108-5.899.414-8.79.076-.218-.024-1.699-.851-1.919-.878-.845-.084-7.417.118-8.123.265-1.267.294.223 1.09-3.111.531-1.572-.267-3.421.921-5.324.499l.006-.968c-1.767 1.06-2.92.042-4.69-.058-1.9 1.081-3.174 1.706-5.675 1.292-2.131-.358-3.565.705-5.67.224-2.16-.5-4.698-.122-7.48-.985-2.129-.65-4.64-.706-6.937-.144-.597-.385-1.188-.773-1.775-1.162-4.708-.409-12.442-.441-16.847-1.89-3.186-1.02-8.124-.31-11.228-1.774-.693.171-1.384.339-2.073.505-2.413-1.136-4.485-3.925-7.26-2.42-2.391-1.096-5.915-2.205-8.756-3.883-.87-.469-7.084-2.06-10.467-3.342-1.026-.394-1.797-.822-2.203-1.043-3.096-1.839-3.783-2.67-4.965-5.6-.353-.866-2.345-2.956-2.44-3.478-1.542-6.296-3.9-11.872-4.258-17.894-.19-3.144-1.429-6.728-2.427-9.99-1.091-3.528-1.647-7.011-1.415-10.732.126-2.167.053-5.019-.372-7.601-.66-3.942-.1-9.019-.688-14.533-.55-5.136-.563-11.688.946-17.639.28-1.108.266-2.202.67-3.748.603-2.371 1.414-10.435.918-13.794-.075-.488.703-3.318.795-3.725.485-2.195 1.35-4.239.098-6.298.362-.387.724-.773 1.088-1.157-.185-1.387-.364-2.77-.54-4.147l.963.104c.675-1.52-.588-2.36-.648-2.927-.163-1.59 1.22-2.132 1.253-2.386-.772-3.508 1.744-9.133.297-13.283.042-.259 1.455-.793 1.33-2.347-.273-3.24 1.373-5.733.47-8.84 1.767-2.26 1.807-5.354 2.004-8.001.403-.36.805-.714 1.207-1.065-.15-3.432 1.483-7.292 1.038-10.846 2.296-4.135 2.407-9.149 5.188-13.623.1-.325 3.487-5.091 5.102-5.714.049-.037.1-.072.151-.108l.166-.087c3.674-2.574 8.104-2.408 12.01-5.392 2.793.571 7.441-.383 9.67-1.167 2.036-.747 3.748-.812 5.04-.833 2.418-.033 2.374-1.17 3.016-1.397 1.418-.486 2.351.195 3.541.06.107-.104-.221-.477-.08-.722.493-.88 2.877-1.723 4.029-1.624 2.885.234 6.926-.035 10.17-1.199.917-.233 1.5 1.2 3.853.802 3.29-.557 8.377-.498 12.06-.207.875.275 1.423-.861 1.912-.96.743-.155 5.457.37 6.338.585.347.081.9.918 1.244 1.002 2.406.582 4.706-1.04 6.943.261 1.13-.734 3.092-.111 2.944-1.79 2.094.273 5.624 1.29 7.882.99zm5.795 6.306c-3.911 1.936-8.856.86-13.219 1.455-5.144.69-12.045.876-16.734-1.052-3.036.398-5.63-.073-9.318.513-2.397.389-5.654-1.175-8.352.268l-.045-.967c-1.23.192-2.949-.045-4.049.22-2.115.515-3.666.327-6.152.949-4.972 1.23-11.405 2.63-16.708 4.706-4.108-.526-7.962 1.094-11.78 2.475-.648-.127-1.361-.225-2.035-.326-.935 1.304-3.664 1.755-5.167 1.617-.112.138-.23.268-.354.387l.087-.046c-.543 1.068-4.086 3.788-3.93 6.282-.736.549-1.496 1.212-2.232 1.862.253 1.327-.697 1.683-.757 2.302-.251 2.423-.317 3.654-1.08 5.526-.941 2.353.668 2.908-.25 5.036-1.643 3.833.057 8.049-1.916 11.615l.726 1.407c-.27.585-.545 1.207-.806 1.758 1.05 2.879-.133 8.248-1.29 11.054l.69 2c-.865 2.387-1.346 6.003-1.142 8.574-.396.567-.791 1.138-1.185 1.712.133 1.555-.09 8.405-.67 10.525-.475 1.704-.886 5.272-.684 7.402.31 3.362-.13 7.71.093 11.8.199 3.683-.251 8.254.369 11.765.044.288-.977 4.232-1.617 4.881.002 3.984.873 8.328-.648 11.735.323.82.649 1.635.977 2.444-1.622 3.083.256 6.44-1.716 9.933.345.609.693 1.213 1.043 1.812-1.397 1.547.578 6.412.43 7.368-.698 4.204.995 8.676.872 12.845-.117 2.964.466 7.327.623 11.069-.006 2.355 2.226 8.372 4.357 9.875-.47 1.327.714 2.645 2.038 2.747.399 1.772 2.67 3.742 4.515 4.401 1.302.564 2.691 1.202 3.652 1.932.418.36 5.883 1.208 7.039 1.772 2.905 1.506 6.529 1.373 9.821 3.063 4.452 2.31 11.727 2.212 15.986 4.066.969-.679 1.862-.907 3.174-.43 4.25 1.545 9.717 1.215 14.458 2.964.646-.254 1.292-.51 1.939-.768 2.28 1.376 6.72.152 9.27-.655 3.52 1.274 3.32-.602 6.714.403 1.195.347 1.777-.557 2.467-.374 5.663 1.488 13.623-.745 19.562 1.166.402-.331.803-.663 1.204-.996 2.938 1.109 5.678.1 8.596.65 1.475.276 2.457-1.392 3.583-1.657 1.555-.365 2.675.159 3.99.214l-.073-.965c.939.194 1.353-.587 1.481-.6.197-.016.392.399.647.434.81.108 1.02-.57 1.173-.583.204-.013 3.508.657 3.723.633 1.382-.119 6.925-.158 7.333-.31 5.002-1.744 11.124-.708 16.286-2.419.453-.145 3.217-1.57 3.416-1.612.198-.037.452.373.686.36 1.572-.085 3.622-.492 4.969-.016.331-.399.66-.799.988-1.2 2.135.861 4.536-.044 6.856-.078.139-.001.334.048.566.125 1.677-.923 3.423-1.732 3.931-1.478.245.122.558.059.895-.11.017-.04.034-.079.047-.119.147-.458-.669-1.442.294-2.451 1.225-1.316.944-2.477 1.964-4.129 1.15-1.958.548-3.029 2.084-5.515.42-.699-.111-1.057-.078-1.306.215-1.682 2.701-4.37 2.306-6.185 1.856-.985 1.212-1.46 1.207-2.817-.003-1.185 1.187-1.709 1.157-2.86-.056-2.478-.213-5.993.606-7.981.075-.185-.004-.77.322-1.829.921-2.994-.217-3.353-.278-4.357-.148-2.517.862-5.205.532-7.335.371-.367.742-.738 1.112-1.11.013-3.22.574-6.06 1.031-9.759.358-.378.716-.758 1.073-1.139-1.733-1.733.216-2.877-.571-4.994.352-.383.704-.77 1.054-1.157-.86-.863-.046-.77.083-1.232 1.084-3.847 1.351-10.262.68-14.183.334-.402.669-.805 1.003-1.21-.638-1.267.175-1.876.058-2.476-.314-.419-.628-.838-.943-1.255.498-.814.994-1.632 1.487-2.452-.892-.68.319-1.186.021-2.478-.592-2.539-.246-3.058.474-5.583-.918-2.193-1.308-5.414-1.105-7.416.359-3.563-1.575-5.6-.827-8.62-1.946-4.063-.441-11.131-1.914-15.448 1.242-2.866 2.313-5.344 1.402-8.858l.792-1.348c-.802-.366-.265-1.626.12-2.538l-.911.455c-.412-.957.246-1.373.242-1.62-.035-2.393-.997-5.948-1.888-7.84-.399-.892-.087-6.569-1.326-7.954.077-.346.152-.69.227-1.034l-.935.252c-.162-.883-.618-1.822-.745-2.634-.166-1.153-.605-5.595-1.279-6.777-1.455-2.608-.592-7.586-3.075-10.401l-.616-.534-.066-.024c-2.514-.901-5.167-3.325-7.984-3.988-4.58-1.114-10.058-4.022-13.281-4.19-.36-.018-.658-.492-2.435-.636-2.898-.232-4.815-2.59-6.863-1.13-3.675-1.64-8.693-1.607-13.074-1.572-.968-.494-1.947-.985-2.936-1.472-1.902 1.613-3.546-.522-6.265-.465-1.781.045-3.033.903-5.698.207-.417-.118-5.691-1.253-6.143-1.216-2.8.198-4.865-.282-7.458-.747zm74.484 194.55c.198-.372-.231-.596-.427-.229-.197.364.227.598.427.229z"/></g></g></svg>