<svg xmlns="http://www.w3.org/2000/svg" width="225" height="224" fill="none" viewBox="0 0 225 224"><g fill="#1b1b1b"><path fill-rule="evenodd" d="M92.513 53.334c4.92-.127 9.264.753 12.574 1.538a29.99 29.99 0 0 1 2.716 1.201c1.047.86 2.179 1.744 3.316 2.793.531.446 1.019 1.5.933 2.188-1.024 6.14-2.271 13.687-4.874 17.818-.599.99-1.205 1.39-1.789 2.253-2.098 3.155-5.327 6.896-8.47 9.352l.493.597c-2.272 1.704-4.618 3.178-7.015 4.54-.246.462-.495.92-.75 1.38-.272.137-.672.325-1.148.545 3.013 9.675 7.738 23.481 10.729 31.681l.133-.047c.437 1.373 2.642 8.503 3.046 9.901.123.413.149.633.118.734 6.297 2.23 13.199 3.595 19.881 3.602 3.349.048 6.229-.079 8.844-.342-.28-.034-.578-.054-.509-.329.085-.335.545-2.044.63-2.377.147-.577 1.414-3.382 1.776-4.004 1.326-2.274 3.003-5.458 4.517-8.264 1.301-2.409 1.618-3.886 1.475-6.193.57-.642 1.224-1.611 1.895-2.75.517-1.717 2.401-2.021 4.06-1.338 2.753 2.014 6.621 4.254 9.038 5.316a30.16 30.16 0 0 1 3.541 1.899c1.364.563 1.615 2.253 1.158 3.657-.178.33-.352.624-.51.852-.586.849-3.428 6.508-4.748 9.317l.129.061-.173.26c.176.032.36.072.55.122.834.236 2.372.733 3.211 2.636.017.036.057.147.071.185 1.691 4.363.274 11.19-3.865 15.017-3.951 4.011-9.186 6.456-14.354 8.196-10.443 3.441-21.228 3.962-28.67 3.858-.771.013-1.648-.01-2.602-.059.174 1.246.393 2.764.622 4.349.413 2.859.858 5.937 1.123 8.041l.135-.018c.022.495.082 3.145.04 3.725-.015.314-.147.328-.309.268l-.336-.154c-.163-.061-.297-.047-.313.269-.003.062-.089.089-.207.098-.257.019-.666-.043-.704-.007-1.224.919-.947.226-1.954.273-.039-.049-.101-.025-.163 0-.064.024-.131.049-.175 0-.261-.236-.445.31-.991.125a28.975 28.975 0 0 0-.244-1.878l-.107.02c.033-.056.06-.111.084-.165-.099-.623-.202-1.186-.314-1.803l-.005-.038a2.166 2.166 0 0 1-.055-.263 3.45 3.45 0 0 1-.031-.387c.106-.481.376-2.632.355-2.759-.045-.297-.452-.537-.501-.846-.029-.206.238-2.215.309-2.817l-.806-.35c-.139-.865-.286-1.766-.44-2.697l.729-.121c-.093-1.004-.425-1.607-.76-2.215-.196-.354-.39-.712-.541-1.151-5.269-.641-11.073-1.752-14.412-2.932-2.2-.704-10.342-3.105-18.714-7.908-8.461-4.669-16.582-12.099-20.937-17.768l-.111.09c-.688-.784-2.725-3.941-4.232-6.449-.299.781-.545 1.586-.72 2.418-1.963 3.708-3.557 7.445-4.964 11.485-.9.717-.144-2.219-.795-1.212-.222.34-.163-.452-.368-.124-1.081-.413-1.424 1.612-1.895-1.414-.022-.14-1.077-.036-.942-.483.678-2.212-1.431.973-.746-1.249.34-1.391 3.091-8.61 3.82-9.969.522-1.159 2.381-4.778 4.741-8.229 2.298-3.433 5.115-6.652 6.214-7.774 7.852-8.71 21.85-16.319 33.647-22.344-.646-1.579-1.27-3.394-1.865-6.16-.811-4.105-1.06-5.308-1.857-10.732-.533-3.902-1.14-10.302-.567-17.209.03-.305.268-.992.46-1.23 3.609-4.656 9.652-5.984 14.445-6.102zm-31.067 58.918c-3.17 2.782-6.073 5.794-8.616 9.048-1.747 2.065-3.896 4.294-5.75 6.794a63.373 63.373 0 0 0 2.164 3.441l.08-.088c.06.165.12.321.18.469a61.813 61.813 0 0 0 3.35 4.441l-.004.004c.353.403.74.866 1.174 1.423.81 1.352 4.526 5.968 4.943 6.263.667.611 1.575.896 2.253 1.468.312.344 4.643 4.431 5.954 5.414.518.031 1.034.056 1.548.075a73.186 73.186 0 0 0 6.983 3.89l-.34.697c5.767 2.858 7.544 2.227 14.103 4.504 3.952 1.24 5.123 1.631 10.446 2.646 4.609.857 12.82 1.912 21.123 1.279a58.117 58.117 0 0 0 11.109-1.812c-.057-.592-.131-1.215-.192-1.8-.093-.903-.543-1.252-1.769-1.525.565-1.205 0-3.476-.746-4.465-.254-.338-.597-1.087-.537-1.529.05-.367-.482-2.354-.819-3.301l-.135.048c.008-.075.03-.337.048-.556-1.934-.037-8.012-.622-8.513-.702-.968-.044-3.047.505-5.789-.088-5.293-1.002-10.459-2.618-15.29-4.849-.065.038-.158.015-.292-.1a1.882 1.882 0 0 0-.014-.041 66.583 66.583 0 0 1-.873-.417c-5.46-1.795-10.73-4.407-15.565-7.658-5.105-3.6-9.184-9.785-14.453-14.164a99.728 99.728 0 0 1-5.76-8.809zm88.809 32.598c-3.478.365-8.305 1.536-12.291 2.035l.113.767c-1.53.156-3.049.283-4.572.381-.163.242-.36.544-.353.57.024.063.407-.001.433.062.013.034-.406.659-.53.831l.765-.161.202.573-.732.257c.006.509 1.215.198 1.102.795-.068.355-.107.466-.098.894.015.744-.287 2.692 1.44 2.93l.068.193c-1.378 1.01.261 1.188.171 1.658-.019.094-.298.24-.298.319-.001.288.265.566.302.86l.731-.256-.164.703c.255-.054.51-.109.766-.162-.124.172-.542.795-.531.831.027.064.679-.016.5.253l-.695 1.533.078.039c2.061-.793 3.839-1.684 5.201-2.633.787-.373 1.484-.73 2.256-1.168 2.721-.688 5.683-2.748 7.167-5.336 1.346-2.255 1.328-4.609.762-6.594-.519-.107-1.079-.239-1.793-.174zm-5.825-20.54c-.413.723-.703 1.749-1.115 2.524l.708.315-1.116 1.56.582.6c-.311.272-1.423 1.298-1.469 1.402-.086.197.326.857-.154 1.301l-2.587 2.959-.46 3.905c-.263 1.106-1.685 1.904-1.626 3.31 3.638-.714 7.038-1.677 10.99-2.745-.144-.314-.602.213-1.017-.226l.577-1.528-.106-.041c.053-.02.101-.041.144-.061l.469-1.241.005.002c.03-.126.085-.259.183-.4.316-.264 1.449-1.26 1.501-1.366.089-.191-.172-.542-.084-.732.048-.103 1.186-1.102 1.503-1.367l-.568-.615.802-1.696.7.33c.505-.824.275-1.461.309-2.17-2.07-1.537-5.43-3.962-7.872-3.851l-.299-.169zm-42.42 15.314c-.161-.118-.312-.216-.377-.139l.377.139zM83.934 99.59c-.908.403-1.59.707-1.73.779-.804.444-2.137 1.901-4.481 2.887-3.865 1.758-7.665 3.549-11.333 5.563.998 1.589 5.089 7.196 6.056 8.238 1.357 2.097 10.464 11.642 13.008 13.256 2.832 2.455 6.386 4.739 10.379 6.692l-.053-.146-.098.067a14.104 14.104 0 0 0-.06-.5c-.641-1.747-1.291-3.5-1.945-5.249l.005-.002a21.32 21.32 0 0 1-.625-1.754c-.367-1.562-1.779-7.309-1.944-7.771-.302-.843-.957-1.534-1.258-2.379-.163-.448-1.575-6.236-1.928-7.798l-1.17-1.011a439.952 439.952 0 0 1-2.559-7.617l.738-.24a39.834 39.834 0 0 0-1.002-3.015zm22.722-37.496c-7.144-4.652-19.765-5.54-24.194-.346-.069 1.803-.037 3.5.049 5.034.117 5.089 1.998 15.402 3.163 20.403.094.842.51 2.525 1.151 4.779 6.928-4.229 10.776-8.104 13.679-14 2.49-3.11 5.139-8.753 6.152-15.87z" clip-rule="evenodd"/><path d="M168.993 63.045a.937.937 0 0 1 .48-.02 1 1 0 0 1 .245.096.622.622 0 0 1 .238.005l.001.001c.012 0 .025-.004.037-.004.291.002.26-.032.512-.063.243-.031.475.018.834.146h.003l.2-.008c.071-.002.158-.004.232 0 .034.002.09.006.146.018a.57.57 0 0 1 .141.05l.013.01c.027-.007.058-.016.089-.022a.94.94 0 0 1 .205-.02.594.594 0 0 1 .559.382l.03.102.11.573c.047.246.093.485.109.56l.026.216c.006.082.011.17.014.255a20.49 20.49 0 0 1-.017 1.54l-.017.199c-.081.603-.154 1.32-.225 2.07l-.208 2.287c-.057.606-.04 1.04.047 1.42.086.378.251.738.532 1.187.062.1.086.217.071.331l-.028.113c-.232.605-.391 1.718-.461 2.935-.069 1.203-.047 2.434.054 3.244l.027.261c.025.283.043.626.047.966.005.445-.012.928-.08 1.269a7.47 7.47 0 0 0-.059.689 89.033 89.033 0 0 0-.109 3.823.5.5 0 0 1 .078.245l-.009.11-.097.56-.102.573a.598.598 0 0 1-.578.493.855.855 0 0 1-.207-.022l-.055-.014a.592.592 0 0 1-.28.07 2.747 2.747 0 0 1-.22.002l-.171-.007c-.323.125-.547.178-.787.145-.249-.035-.196-.067-.455-.065l-.03-.003c-.023.005-.055.012-.093.015a.614.614 0 0 1-.114-.006.845.845 0 0 1-.577.102l-.126-.033a.5.5 0 0 1-.33-.354l-.013-.073-.036-.38-.013-.141a.5.5 0 0 1-.047-.484l-.011-.113-.03-.308.001-.006a.968.968 0 0 1 .006-.347l.022-.074a.467.467 0 0 1 .032-.07c.044-.08.15-.28.245-.466l.043-.087a.608.608 0 0 1-.128-.291l-.005-.075v-.002c0-.093.026-.17.027-.173a2.216 2.216 0 0 1 .074-.176c.034-.074.081-.165.128-.258a.498.498 0 0 1-.229-.418v-.875l.01-.1a.5.5 0 0 1 .288-.357l-.031-.05a1.889 1.889 0 0 1-.238-.48 1.4 1.4 0 0 1-.017-.728l.116-.52a8.34 8.34 0 0 0 .094-.6l.143-1.002c.053-.384.101-.808.119-1.243.036-.834-.052-1.544-.326-1.976l-.056-.083a.502.502 0 0 1-.102-.303v-.292a.5.5 0 0 1 .192-.393.569.569 0 0 0 .226-.314.97.97 0 0 0-.008-.414c-.036-.2-.085-.344-.141-.583-.046-.194-.101-.47-.039-.74l.029-.094a.718.718 0 0 1 .117-.196c.024-.03.052-.054.073-.076a4.5 4.5 0 0 0-.007-.438l-.008-.2a.494.494 0 0 1-.419-.612l.106-.427a.498.498 0 0 1-.276-.717c.044-.08.151-.28.246-.467l.053-.106a.93.93 0 0 1-.16-.337.78.78 0 0 1 .049-.48h-.002l.327-.876.261-.7-.588-1.577-.019-.066c-.061-.27-.013-.526.033-.712.024-.095.053-.193.075-.272.024-.084.043-.156.057-.224a.6.6 0 0 0 .008-.284.436.436 0 0 0-.117-.182l-.094-.083a.5.5 0 0 1-.19-.447l.151-1.427.013-.075a.501.501 0 0 1 .341-.352zM175.561 67.977c.113.016.203.047.26.067l.003.002.035-.008a.672.672 0 0 1 .115-.005c.044.002.086.008.108.012.014-.001.027-.005.041-.005.304.001.328-.024.536-.04.204-.016.408.008.781.09h.039l.199-.004c.071-.001.151-.002.217 0 .03 0 .073.003.115.009.018.002.057.007.101.021.013.004.032.015.056.026l.039-.006c.057-.01.178-.03.288-.028a.698.698 0 0 1 .259.052.569.569 0 0 1 .292.275l.026.065.001.002.114.36.105.34.024.092c.02.097.027.203.031.276.006.123.009.266.008.407a6.655 6.655 0 0 1-.026.597l-.022.149c-.079.365-.152.8-.222 1.258l-.208 1.409c-.052.343-.031.552.032.723.066.178.2.37.478.644a.501.501 0 0 1 .073.62c-.197.317-.351.945-.42 1.684-.067.723-.043 1.45.05 1.91l.03.176c.027.19.046.415.05.635.005.28-.011.62-.095.88h.001c-.001.006-.008.034-.016.095-.01.068-.02.159-.031.267a21.4 21.4 0 0 0-.056.79 35.354 35.354 0 0 0-.049 1.44.5.5 0 0 1 .075.288l-.02.115c-.014.043-.054.188-.097.341-.041.145-.086.3-.104.356l.001.001a.564.564 0 0 1-.302.348.665.665 0 0 1-.269.06c-.11.002-.229-.021-.278-.03h-.007l-.034.015a.592.592 0 0 1-.113.027 1.04 1.04 0 0 1-.114.01 4.04 4.04 0 0 1-.203 0l-.183-.005h-.025c-.337.082-.532.108-.729.091-.204-.017-.21-.041-.485-.04l-.042-.003-.015.003a.655.655 0 0 1-.195 0c-.005 0-.009-.002-.014-.003a1.083 1.083 0 0 1-.616.054.5.5 0 0 1-.395-.413l-.036-.234v-.004a.48.48 0 0 1-.076-.477l-.026-.164a.676.676 0 0 1 .019-.358l.043-.096a.5.5 0 0 1 .062-.084l.139-.163a.508.508 0 0 1-.051-.214v-.004a.505.505 0 0 1 .098-.308l.011-.016a.504.504 0 0 1-.109-.31v-.539l.011-.1a.49.49 0 0 1 .13-.246.85.85 0 0 1-.11-.815l.113-.31a3.38 3.38 0 0 0 .085-.34l.144-.62a4.79 4.79 0 0 0 .113-.72c.031-.442-.039-.762-.217-.966l-.084-.08a.501.501 0 0 1-.185-.389v-.18a.5.5 0 0 1 .284-.45.545.545 0 0 0 .152-.098c-.002-.01-.004-.029-.012-.056a1.487 1.487 0 0 0-.053-.142c-.021-.05-.056-.129-.082-.197-.044-.116-.144-.386-.04-.669l.001-.002.055-.108a.582.582 0 0 1 .144-.156l-.003-.054a.499.499 0 0 1-.409-.683l.003-.007a.497.497 0 0 1-.128-.77l.143-.167a.599.599 0 0 1 .025-.669l.319-.527.169-.28-.169-.281-.327-.54-.042-.088c-.101-.278-.014-.529.037-.655.027-.067.06-.138.08-.18l.034-.079-.017-.01-.099-.054a.5.5 0 0 1-.275-.536l.075-.44.075-.44.019-.075a.5.5 0 0 1 .384-.332l.103-.015c.101-.01.195-.008.282.005zM162.945 70.6c.259-.031.441.004.565.034l.052.013c.022-.004.042-.01.059-.012a.728.728 0 0 1 .086-.002c.042 0 .084.006.101.008h.008c.016 0 .031-.003.046-.003.311 0 .366-.018.55-.028.182-.01.371.005.751.062l.059-.001.197-.003h.209c.029 0 .066.002.099.005a.586.586 0 0 1 .157.035l.089-.008c.062-.006.167-.018.259-.016.046 0 .122.003.205.027.072.02.25.088.348.286h.001c.021.04.071.15.115.245l.104.223.043.112a1.54 1.54 0 0 1 .037.229 3.93 3.93 0 0 1-.019.728l-.033.15c-.153.476-.28 1.128-.424 1.767-.042.187-.018.256.007.301.042.075.149.19.435.38a.5.5 0 0 1 .091.757c-.157.17-.299.533-.365 1.005-.063.46-.037.905.041 1.167.051.17.084.397.09.613.006.199-.008.48-.119.71l.001.002c.016-.033.013-.043.003.006a2.048 2.048 0 0 0-.027.16c-.02.139-.039.318-.055.515-.024.289-.038.601-.045.858a.5.5 0 0 1 .029.465l-.094.223c-.041.096-.087.206-.106.247h-.001a.552.552 0 0 1-.341.297.737.737 0 0 1-.21.031c-.091.002-.193-.01-.248-.017l-.062-.008c-.026.01-.046.018-.057.02a.616.616 0 0 1-.084.014 1.296 1.296 0 0 1-.096.006h-.195c-.063 0-.137-.002-.182-.003h-.046c-.346.057-.524.072-.699.062-.088-.005-.143-.012-.21-.018l-.289-.01c-.012 0-.025-.003-.038-.004l-.003.001a.709.709 0 0 1-.237-.003l-.023.007c-.089.023-.211.051-.372.05l-.176-.015a.501.501 0 0 1-.397-.308l-.023-.073c-.007-.032-.013-.064-.021-.095a.497.497 0 0 1-.122-.243.495.495 0 0 1 .013-.224.584.584 0 0 1 .03-.445l.065-.1a.462.462 0 0 1 .087-.083l.022-.017-.007-.057c0-.023.001-.046.004-.068l.015-.075a.49.49 0 0 1 .03-.078.492.492 0 0 1-.049-.209v-.362l.011-.1a.475.475 0 0 1 .053-.138.647.647 0 0 1-.089-.282.685.685 0 0 1 .087-.384l.001-.001.106-.197c.019-.038.039-.087.071-.192l.147-.42c.046-.138.085-.276.101-.429a.62.62 0 0 0-.029-.298.348.348 0 0 0-.118-.146l-.08-.052a.501.501 0 0 1-.261-.438v-.121a.5.5 0 0 1 .342-.474.919.919 0 0 1-.122-.281.638.638 0 0 1 .052-.432.493.493 0 0 1-.271-.454.5.5 0 0 1-.203-.287.501.501 0 0 1 .187-.525l.004-.003a.538.538 0 0 1 .154-.55l.313-.347.024-.026-.025-.028-.326-.362-.068-.097a.64.64 0 0 1 .01-.632.499.499 0 0 1-.273-.574l.075-.295.075-.294.025-.073a.5.5 0 0 1 .399-.3z"/><g fill-rule="evenodd" clip-rule="evenodd"><path d="M158.34 74.839c.077.006.08.004.086.004l.089-.003h.054l.03.002a.388.388 0 0 0 .028-.001c.409 0 .338-.018.897.009l.047-.001.138-.001a10.709 10.709 0 0 1 .194 0c.008 0 .021 0 .034.002.005 0 .019.001.036.004l.021.003c.028 0 .066 0 .114-.003l.158-.003a1.135 1.135 0 0 1 .167.014c.009.002.032.007.062.017l.106.048.011.006.043.03.048.033.044.03a.17.17 0 0 0 .018.012l-.001.001c.171.11.221.276.235.33a.733.733 0 0 1-.003.365.642.642 0 0 1-.07.161.498.498 0 0 1-.084.87.62.62 0 0 1-.09.637.5.5 0 0 1-.128.502l-.062.051-.016.013-.041.03-.043.032-.04.03-.001-.002a.563.563 0 0 1-.181.082.632.632 0 0 1-.173.017c-.048 0-.106-.002-.148-.004a4.595 4.595 0 0 0-.096-.003l-.011.003a.818.818 0 0 1-.126.007h-.294c-.512.026-.464.007-.826.007l-.027-.001h-.021l-.053.002c-.018 0-.053 0-.09-.004l-.062.005c-.035.003-.078.007-.128.009l-.181-.002a.498.498 0 0 1-.316-.134.496.496 0 0 1-.257-.405c-.001-.005.001-.01.001-.015a.488.488 0 0 1 .134-.435.518.518 0 0 1 .089-.354.502.502 0 0 1-.074-.26v-.026l.009-.086a.495.495 0 0 1-.044-.684.5.5 0 0 1-.006-.63l.104-.13.076-.077a.501.501 0 0 1 .295-.111h.19c.053 0 .097.004.135.007zm1.657 3.248c.006-.004.013-.005.019-.009l-.001-.002a.34.34 0 0 1-.018.01zM181.667 74.77c.08.005.086.004.097.003.035-.003.068-.003.088-.003l.056.002h.031l-.021.002a.513.513 0 0 1 .051-.002c.43 0 .351-.019.933.008h.053l.144-.002a17.233 17.233 0 0 1 .202.001l.032.001a.578.578 0 0 1 .06.008l.124-.003c.049-.001.111-.004.163-.004a1.15 1.15 0 0 1 .166.014c.009.002.031.006.06.016l.104.045.011.006.044.03c.015.01.034.02.05.032l.046.03.02.013h-.001a.56.56 0 0 1 .242.33.709.709 0 0 1-.003.376.631.631 0 0 1-.067.152.498.498 0 0 1-.09.877.616.616 0 0 1-.095.636.5.5 0 0 1-.136.506l-.063.05-.018.013-.043.032-.045.032-.04.026.001.001a.512.512 0 0 1-.179.076.664.664 0 0 1-.172.017c-.05 0-.108-.002-.153-.004a3.962 3.962 0 0 0-.106-.003l-.014.003c-.017.003-.032.003-.038.004a1.065 1.065 0 0 1-.087.003h-.264c-.048 0-.056 0-.045-.001a7.07 7.07 0 0 1-.487.013l-.372-.005-.028-.001h-.024l-.054.002c-.019 0-.052 0-.089-.004-.002 0-.015 0-.072.005-.037.003-.081.007-.133.008h-.186a.498.498 0 0 1-.311-.13.497.497 0 0 1-.267-.412l.001-.017a.485.485 0 0 1 .14-.438.49.49 0 0 1 .091-.348.494.494 0 0 1-.075-.26v-.025a.54.54 0 0 1 .008-.082.502.502 0 0 1-.164-.325.5.5 0 0 1 .114-.362.502.502 0 0 1 .001-.64c.035-.042.074-.09.109-.13l.075-.073a.502.502 0 0 1 .29-.106c.153-.006.257.001.335.006zm1.653 3.28c.023-.009.05-.02.077-.036l-.001-.002a.432.432 0 0 1-.076.039z"/><path d="M158.796 52.462c1.808-.1 11.305-.079 13.509 0 5.589.2 12.619.377 19.671.549 1.448-.06 2.504 1.114 2.563 2.563-.076 3.128-.151 6.261-.227 9.274-.211 8.416.097 12.973 1.164 19.296-.345 3.34-.592 8.473-.747 14.184.063 1.556-1.198 2.689-2.753 2.753-9.749-.266-21.183-.265-28.268-.028-3.544.118-10.467.191-14.486.042-1.564.064-2.703-1.203-2.767-2.767.013-.338.027-.656.043-.95.168-3.137.325-22.661.32-32.23h-.142c.052-1.044.302-6.438.355-7.486.083-1.639.939.979 1.022-.66.016-.329.898-.017.959-.106.219-.329.394-.56.536-.717-.068-.23.105-.511.996-1.161.089-.067-.224-1.031.106-1.05 1.639-.09-.979-1.026.66-1.116 1.048-.059 6.442-.333 7.486-.39zm13.509 6.206c-4.087.247-8.991-1.17-13.509.389l-6.256-.18.049 1.86.115-.024c-.04.124-.075.244-.106.358l.106 4.077h-.006c.026.392.034.836.006 1.356-.174 1.157-.777 5.44-.776 5.788.001.651.386 1.282.387 1.93.001.35-.601 4.634-.775 5.788l.775.967v5.787h-.775c-.14 3.94.755 5.246.817 8.71a233.1 233.1 0 0 0 3.633.148c6.734.232 23.281 1.164 30.874-.388h1.931c.28.097.568.182.862.258-.024-3.455-.537-6.981-.387-9.419.048-.793.361-1.216.387-1.93.096-2.58-.063-5.921 0-8.681h-.775l.388-5.79-.776-.964c.174-1.157.776-5.442.776-5.791-.002-.663-.647-2.005-.388-3.857l.104-1.042-5.103-.513-11.578 1.163zM78.98 38.918c5.324-1.653 14.979-2.834 24.255-.242 9.292 2.372 17.87 8.11 21.909 13.998.968 1.363 2.149 3.365 2.86 5.857.072.23.101.874.079 1.113-.483 4.083-1.096 8.73-1.58 11.45-.252 1.416-.895 5.889-1.659 11.401-.137 1.49-1.464 2.374-2.947 2.172-3.073-.566-6.473-1.186-9.844-1.794-1.477-.202-2.269-1.556-1.96-3.014 1.327-5.159 2.622-10.251 3.551-13.963l-.138-.036c.145-.485.549-1.85.987-3.33.232-1.095 1.365-1.842 2.483-1.81 1.996.215 4.194.45 4.851.523.227.025.379.058.476.096.097-.599.205-1.258.322-1.966-.923-3.418-4.138-7.76-8.465-10.642-4.525-3.139-9.901-4.73-13.428-4.773a38.271 38.271 0 0 0-1.957-.378c-4.672-2.576-11.984-.563-15.74.514-.788.192-1.308.04-2.012.272-2.561.83-5.554 2.64-7.845 4.343l.47.616a31.835 31.835 0 0 0-4.604 3.726c-.028.417-.05.833-.063 1.249a33.76 33.76 0 0 0-2.59 2.557c-.064.296-.119.545-.155.727.1-.028.254-.044.475-.046.763-.005 3.588-.014 5.785-.022 1.746.01 2.921 1.465 2.856 3.21-.033 1.172-.06 2.166-.07 2.57-.05 2.01-.85 12.477-1.115 14.985-.061 1.63-1.474 2.823-3.104 2.883h-.034c-2.898-.094-6.146-.183-9.58-.267-1.771.064-2.944-1.36-2.833-3.128.895-7.163 1.86-15.155 2.761-22.501.016-.257.254-.862.39-1.08l.018-.024c5.948-7.967 10.43-11.334 17.196-15.246zm40.374 28.408-.006-.002c-.081.43-.193.913-.362 1.468-.482 1.21-2.228 5.695-2.322 6.071-.175.705.028 1.48-.146 2.182-.024.093-.15.437-.33.92l.006-.002 4.12.718c.048-2.583-.315-4.355.419-8.33.283-1.528.474-2.551.67-3.645l-1.892-.079-.157.7zM63.7 74.93l-.007.688 4.484-.404c.433-3.643 1.347-7.627.702-11.525l-2.984-.203L63.7 74.93zm58.541-13.218c-.26.203-.621.416-.088.542l.064-.389.024-.153zm-56.06-3.781c-.012.182.005.41.033.678.686-.07.202-.403-.033-.678z"/><path d="M136.574 4.007c4.825.008 12.672-.65 17.241.37 3.331.717 8.237-.475 11.529.661a482.26 482.26 0 0 1 2.038-.718c2.529.874 4.986 3.432 7.581 1.62 2.596.832 6.172 1.503 9.306 2.82 1.074.365 11.058 1.75 12.931 2.234 1.793.316 2.819.557 3.818 1.053.87.426 1.76 1.048 2.794 2.14.818.774 3.395 2.29 3.743 2.965 3.322 6.226 6.08 11.786 6.984 17.913.417 3.059 1.938 6.838 3.106 10.025 1.317 3.682 2.024 7.065 1.968 10.913-.04 2.07.178 5.224.696 7.724.817 3.976.445 9.146 1.22 14.787.723 5.168.943 11.89-.388 17.974-.247 1.13-.2 2.245-.559 3.837-.533 2.436-1.112 10.651-.525 14.069.088.495-.612 3.378-.693 3.8-.424 2.251-1.234 4.388.075 6.411-.351.402-.704.799-1.056 1.2.221 1.413.438 2.823.649 4.229l-.966-.077c-.634 1.582.655 2.362.73 2.935.208 1.587-1.166 2.213-1.19 2.468.863 3.589-1.506 9.409.065 13.494-.034.246-1.434.858-1.27 2.453.348 3.4-1.2 5.777-.225 9.03-1.686 2.246-1.661 5.549-1.764 8.166-.388.361-.776.719-1.165 1.072.233 3.62-1.259 7.516-.672 11.074-2.174 4.484-2.026 9.191-4.375 13.887-.16.471-2.811 5.107-3.331 5.754-.34.756-1.271 2.041-2.416 2.791l-.167.104c-3.121 1.891-6.831 2.613-9.829 5.289-2.978-.301-7.59.959-9.789 1.882-2.145.908-3.725 1.042-5.084 1.153-2.533.195-2.372 1.316-3.013 1.581-1.378.562-2.386-.062-3.615.144-.108.11.252.463.118.717-.5.914-2.779 1.875-3.986 1.845-3.014-.064-7.087.419-10.286 1.75-.898.278-1.586-1.119-3.983-.596-3.252.724-8.444.932-12.233.836-.909-.228-1.391.934-1.881 1.059-.713.191-5.592-.083-6.467-.252-.355-.063-.954-.869-1.309-.936-2.484-.454-4.731 1.29-7.069.11-1.108.794-3.137.277-2.893 1.947-2.137-.16-5.775-.983-8.052-.558-.436.085-3.393 1.621-4.548 1.346-2.962-.701-6.063.591-8.99-1.314-1.09.27-2.183.536-3.275.798-1.455-1.839-2.561-.802-3.836-.715-2.583.189-8.174-.228-10.943-.84-2.017-.439-4.238-.373-7.018-1.179-1.746-.496-4.618.592-5.267.371-5.11-1.692-13.695-2.046-19.322-2.938-.596-.44-1.185-.88-1.765-1.323-.704.191-1.406.38-2.104.566-1.6-1.391-4.685-1.032-6.456-1.434a88.726 88.726 0 0 1-1.08-1.26c-.48.227-.801.437-1.406.144-4.523-2.188-8.928-4.083-13.385-6.495l-2.104-1.571c-1.804-2.689-3.17-5.561-4.23-8.486-.98-2.622-4.48-6.981-4.24-10.61-.822-.375-2.443-4.356-2.442-4.808-.24-4.794-3.153-8.934-3.27-14.768-.006-.239.627-1.842.626-2.067-.005-.939-.555-2.32-.511-3.2.018-.366.74-1.066.764-1.438.108-1.715.034-7.313-.465-9.129-.46-1.638-2.222-2.892-1.061-5.699-.915-1.103-1.346-2.497-1.316-4.083-1.944.328-1.196-2.19-2.187-3.392-.029-.429-.057-.859-.084-1.289.635-1.141 1.005-2.508.745-3.93-.462-2.481-.827-7.412-.388-10.289.433-2.909.419-6.295.862-9.009.035-.22.934-1.702.972-1.922.74-4.381-.576-8.545 1.221-12.125-1.26-5.925 1.775-10.643 1.015-16.898l-.966-.082c.13-.705.028-1.625.197-2.241 1.641-5.979.068-13.356 2.115-20.47-.247-.474-.494-.948-.739-1.422.863-2.216 1.592-5.903 2.575-8.116a292.9 292.9 0 0 1-.513-2.118c.888-1.141 3.362-6.453 3.574-7.85.394-3.153 1.928-6.266 3.184-10.143.682-2.094 2.026-3.293 3.086-4.924l.83.5c-.029.361-.055.726-.077 1.09.276-.545.553-1.063.856-1.524-.025-.62.16-1.288.823-1.73 1.2-.8 2.5-2.334 3-3l.665.598c.36-.625.724-1.251 1.093-1.876 1.833.088 3.661.197 5.473.328 1.13-.676 2.27-1.345 3.417-2.006 1.173.33 2.73.53 3.954-.088.832-.422 1.116-2.576 3.707-.969.744-.522 1.492-1.042 2.245-1.559 2.556.428 4.6-.668 7.067-.646.554-.453 1.111-.904 1.67-1.354.66.024 1.318.05 1.976.08 1.262-2.085 3.968-.922 6.808-1.825 1.485-.47 3.091-.142 4.326-1.258 2.76 1.198 5.365-.283 8.365-.341 2.231-.046 5.956-.827 8.918-.695.224.01 1.785.728 2.005.74.857.026 7.516-.648 8.224-.847 1.268-.386-.305-1.072 3.126-.759 1.603.152 3.397-1.17 5.365-.89l.067.966c1.723-1.19 2.939-.259 4.758-.295 1.869-1.222 3.063-1.94 5.657-1.722 2.216.19 3.534-.98 5.727-.668 2.269.327 4.734-.252 7.676.38 2.177.473 4.776.321 7.03-.434.632.334 1.26.67 1.883 1.007zm-2.009 6.254c-2.442-1.178-6.814.41-9.385 1.42-3.65-.987-3.327.868-6.858.134-1.23-.252-1.747.694-2.47.567-5.86-1.043-13.831 1.783-19.994.308-.386.359-.771.72-1.156 1.08-3.052-.894-5.785.311-8.783-.03-1.52-.171-2.406 1.563-3.532 1.906-1.548.473-2.732.031-4.07.069l.136.958c-.969-.129-1.337.682-1.466.702-.2.03-.423-.372-.685-.389-.828-.052-.998.64-1.154.664-.211.027-3.612-.41-3.827-.372-1.39.215-7.027.64-7.428.819-4.979 2.09-11.246 1.478-16.381 3.554-.45.177-3.157 1.796-3.36 1.853-.199.05-.484-.34-.721-.31-1.592.198-3.636.75-5.032.372-.31.424-.617.85-.923 1.274-2.226-.702-4.58.376-6.937.589-.442.038-1.483-.379-2.494-.614-1.03.977-2.12 2.036-3.002 2.94.081.52.6 1.366-.194 2.29-1.19 1.434-.855 2.57-1.833 4.328-1.099 2.075-.45 3.101-1.928 5.727-.402.733.139 1.077.112 1.334-.157 1.678-2.594 4.573-2.145 6.368-1.837 1.075-1.18 1.539-1.145 2.93.03 1.208-1.14 1.74-1.088 2.93.106 2.56.354 6.074-.428 8.157-.07.183.017.818-.278 1.856-.854 3.063.287 3.42.37 4.442.206 2.532-.747 5.314-.37 7.486-.364.38-.725.755-1.086 1.135.056 3.296-.44 6.152-.815 9.965-.35.396-.699.794-1.047 1.193 1.772 1.736-.147 2.897.687 5.056-.342.401-.684.805-1.025 1.21.88.858.064.784-.055 1.259-.992 3.91-1.099 10.465-.323 14.436-.324.418-.648.836-.97 1.256.671 1.27-.125 1.912.008 2.52.326.417.653.834.98 1.249-.476.842-.95 1.684-1.42 2.536.91.667-.285 1.216.05 2.522.667 2.563.336 3.085-.305 5.689.986 2.224 1.479 5.437 1.347 7.507-.237 3.634 1.769 5.622 1.14 8.734 2.091 4.004.9 11.308 2.587 15.564-1.089 2.995-2.035 5.513-.905 9.056-.237.472-.472.943-.706 1.414.824.33.364 1.618.044 2.576l.879-.517c.475.945-.152 1.407-.131 1.658.196 2.412 1.445 5.977 2.495 7.78.487.946.726 6.642 2.15 7.912-.037.35-.072.698-.106 1.045l.898-.363c.25.816.857 1.769 1.11 2.584.26 1.043 1.53 5.551 2.407 6.464.69.81 1.151 1.798 1.592 2.847l.02.014c1.897 1.554 4.055 3.644 6.573 4.103 2.676.479 5.62 2.51 8.559 2.84 4.634.528 10.644 2.941 13.803 2.803.37-.013.724.431 2.55.425 2.848-.033 5.145 2.19 7.002.562 3.894 1.352 8.946.952 13.388.62 1.02.427 2.047.852 3.083 1.272 1.816-1.736 3.64.288 6.387.057 1.815-.157 3.023-1.092 5.77-.561.444.092 5.864.909 6.315.845 2.847-.361 4.956-.002 7.623.316 3.861-2.156 8.955-1.356 13.349-2.187 5.215-.968 12.172-1.518 17.081.161 3.016-.555 5.758-.225 9.427-1.001 2.475-.518 5.761.882 8.501-.708l.095.964c1.245-.257 2.933-.104 4.082-.433 2.197-.637 3.647-.514 6.212-1.282 4.918-1.491 11.465-3.269 16.704-5.695 4.167.259 7.98-1.64 11.701-3.371a85.23 85.23 0 0 0 2.026.15c.566-.966 2.036-1.61 3.3-1.926l-.102.064c.21.077.692-.06 1.133-.23.331-2.481 3.784-5.136 3.586-8.133.703-.626 1.39-1.236 2.09-1.926-.302-1.401.664-1.94.675-2.494.072-2.191.194-3.877.844-5.634.817-2.259-.757-3.005.078-5.159 1.498-3.875-.331-8.07 1.559-11.899-.256-.462-.514-.911-.773-1.368.251-.587.501-1.18.75-1.778-1.116-3.013-.101-8.376.99-11.35l-.748-1.965c.802-2.464 1.189-6.195.913-8.763.38-.596.76-1.194 1.138-1.796-.17-1.626-.136-8.537.389-10.739.427-1.715.742-5.383.482-7.546-.403-3.379-.083-7.853-.424-11.994-.304-3.729.012-8.417-.714-11.94-.054-.291.846-4.37 1.465-5.03-.127-4.003-1.14-8.435.262-11.938-.352-.833-.706-1.66-1.064-2.48 1.517-3.085-.496-6.612 1.343-10.113-.369-.589-.74-1.182-1.116-1.794 1.324-1.73-.844-6.39-.755-7.464.491-4.36-1.439-8.8-1.579-12.954-.092-3.076-.987-7.381-1.533-11.088-.177-2.344-3.378-8.222-5.732-8.91.062-1.494-1.312-2.233-2.548-1.822-.342-.515-.886-.933-1.517-1.195-2.739-1.172-6.66-1.602-9.196-2.942-.463-.288-6.068-.41-7.396-.857-3.09-1.13-6.833-.599-10.345-1.918-4.795-1.813-12.173-.988-16.679-2.433-.897.77-1.833 1.078-3.192.726-4.487-1.143-9.969-.327-14.979-1.667-.628.309-1.257.62-1.887.932zM18.291 26.927c.181-.38-.254-.593-.437-.21-.183.387.256.591.437.21z"/></g></g></svg>