<svg xmlns="http://www.w3.org/2000/svg" width="225" height="224" fill="none" viewBox="0 0 225 224"><g fill="#1b1b1b" fill-rule="evenodd" clip-rule="evenodd"><path d="M97.435 98.957c-.157-2.293 1.853-3.4 3.945-2.447l.457.212c2.532 1.167 7.593 3.704 9.932 5.144 1.941 1.196 14.433 7.843 20.592 11.029l.066-.126c.569.347 3.229 1.95 4.306 2.602l3.027 1.345c.333.5.8 1.7 0 2.5s-2.834 3-4.5 4v-.436c-1.005.666-2.03 1.345-2.355 1.563-1.092.731-7.093 4.096-8.523 4.813-5.234 2.624-12.34 6.36-18.647 9.64a86.112 86.112 0 0 0-3.755 2.058c-1.639 1.037-3.269-.009-3.402-1.945-.122-3.629-.545-6.309-1.394-9.679.797-6.436.745-21.995.25-30.273zm5.021 4.071c-.014 4.515.198 9.215 1.068 12.1l.025 1.399c-1.573 3.459.004 8.337-.186 11.192-.038.576-.345.888-.362 1.405-.05 1.51.071 3.374.106 5.088.699-.24 1.275-.442 1.367-.494.418-.238.947-1.277 2.243-1.712l7.878-3.114 6.734-5.139c2.457-1.671 6.249-2.185 8.333-5.152l.483-.248-.492-.232.003-.005a5.863 5.863 0 0 1-.874-.447c-.664-.54-3.139-2.499-3.367-2.618-.42-.216-1.003-.084-1.421-.299-.225-.116-2.706-2.079-3.368-2.618l-.978.366-3.725-1.929.357-.688c-2.878-1.675-4.104-.908-7.187-2.85-1.828-1.151-2.358-1.508-4.788-2.917-.53-.307-1.152-.676-1.849-1.088z"/><path d="M107.467 30.42c2.61-.034 5.359.235 8.072.877a26.28 26.28 0 0 1 4.058 1.297c.672.283 1.34.598 2.043 1.021.709.631 1.405.252 2.503 2.918.009.038.026.15.033.187.659 5.563-.484 10.328-1.389 13.866-.87 3.741-4.071 10.725-6.199 13.747-.476.727-1.666 2.588-3.337 4.96.862.713 1.734 1.414 2.617 2.103 2.82 2.409 5.317 6.514 9.511 7.906a167.642 167.642 0 0 0 4.346 3.63c6.657.112 13.826.39 20.553-.848l16.229-.073 3.253-.295 1.5 1 2 .5v1.97c.084-.08.181-.026.297.252l.255 8.398c2.731.912 4.063 2.587 5.862 4.178.461 2.087.837 5.191.748 8.229-.038 1.448-.1 2.96-.526 4.576-.37 1.591-1.557 3.401-2.88 4.231-.861.629-2.07 1.001-3.214 1.187-.09 1.939-.157 3.505-.152 3.793.026 1.358.436 2.665.461 4.022.014.734-.426 9.669-.556 12.087.27.666.541 1.327.811 2.001l.214 11.829c-.003 1.695-1.208 3.065-2.875 3.146l-.41.008-.014-.775c-6.634.007-9.678.624-14.399.964 2.617 6.644 5.169 13.665 7.117 20.497.796 3.226 1.696 5.947 1.446 9.362a2.273 2.273 0 0 1-.741 1.75c-.538.452-.72.437-.872.504-.274.083-.361.086-.469.104-.265.035-.184.024-.27.034-.111.011-.229.021-.36.032-.306.023-.464.035-.672.049-.414.027-.909.054-1.264.077-.846.049-1.597.095-2.404.146-1.554.101-3.06.215-4.539.348a189.95 189.95 0 0 0-9.123 1.049c-12.918-.69-44.445-.494-60.473.064-1.444.051-3.369.103-5.273.147-1.69.067-2.878-1.268-2.838-2.959.216-5.743 1.096-12.892 1.854-16.828.202-1.777 1.242-7.055 2.686-13.604-4.598.219-8.735.509-12.05.895l-4.026.072c-2.064-.304-4.31-.468-6.648-.539-1.377-.002-2.48-1.013-2.479-2.39.17-5.566-.186-11.648-.46-17.014-2.87-.931-4.145-2.682-5.963-4.294-.422-2.072-.772-5.151-.685-8.165.068-2.637.239-6.586 3.164-8.689.882-.703 2.16-1.111 3.35-1.306a497.498 497.498 0 0 1-.152-8.238l-.775.014.17-12.087c-.27-.666-.543-1.332-.814-1.997.035-.642.092-1.744.156-3.03.002-1.85 1.362-3.333 3.212-3.33 3.56.177 8.531.412 9.066.402 1.384-.027 4.17-.722 8.04-.533l18.586.557c.17-.175.342-.35.515-.53l.003.004c.241-.274.528-.569.884-.885.86-.592 4.044-3.042 4.236-3.266.417-.449.53-1.142.927-1.58.217-.219 3.273-2.774 4.07-3.482a65.768 65.768 0 0 0-.026-1.184 110.703 110.703 0 0 0 3.01-3.818c-4.005-4.783-8.081-10.46-10.848-16.382-1.473-3.145-2.466-5.81-3.228-8.31-.383-1.277-.705-2.498-.945-3.801a15.928 15.928 0 0 1-.255-2.076 8.18 8.18 0 0 1 .02-1.251c.15-.56-.21-.783.982-2.391.092-.104.41-.351.522-.433a40.374 40.374 0 0 1 2.377-1.913c2.981-1.228 7.598-2.652 12.844-2.694zm52.97 152.143c-.329 1.175.378 2.364.775 2.682-.529-.54-.967-1.756-.816-2.497.018-.049.035-.123.049-.213l-.008.028zm-27.395-29.136c-9.926.015-30.074-.133-46.624.426l-.002.009-.039-.008-.76.025c-1.398 6.174-.488 7.84-1.862 14.67-.774 4.101-1.037 5.305-1.694 10.69-.1.863-.21 1.843-.318 2.917 11.183.168 27.129.247 35.41-1.063l2.725-.038c.025-1.221-.013-2.67-.026-3.986-.014-1.392-.438-2.077-1.658-2.925.682-1.61.313-5.222-.354-6.974-.228-.599-.508-1.848-.407-2.49.083-.534-.279-3.709-.536-5.252l-.139.022c.024-.179.128-1.087.153-1.264.039-.278.951.006.99-.272.012-.056.885-.148.944-.172 1.221-.52.971-.24 2.014-.416.089.031.251-.087.351-.056.293.091.419-.294 1.006-.275l.262.789.111-.022c-.036.026-.067.052-.095.075l.213.641-.006.001a.31.31 0 0 1 .041.218c-.141.216-.622 1.002-.613 1.059.019.104.415.144.434.248.01.056-.471.845-.613 1.06l.791.03.153.933-.765.125c-.04.767 1.214.731 1.045 1.588-.101.509-.15.662-.18 1.308-.051 1.124-.533 3.944 1.198 4.919l.051.311c-1.489 1.028.159 1.88.026 2.553-.028.136-.326.255-.333.374-.027.432.219.945.229 1.401l.766-.125-.23.996.79.03c-.141.215-.622 1.003-.612 1.059.019.107.691.219.484.56l-.842 2.056 1.454 1.679c.136.24.028.541-.058.846 5.674.131 11.866-.704 15.962-.6 1.141.028 1.692.331 2.749.338 3.653.031 8.441-.219 12.351-.256l-.02-.776c.827.021 1.794.037 2.702.05l-.077-.083c.065-1.37-1.008-7.222-1.209-7.716-.275-.853-1.464-2.415-2.116-4.973-1.334-4.708-2.861-9.453-4.454-14.172-.824.01-1.705.015-2.655.005-6.201-.07-8.027-.11-16.108-.097zm17.355-64.75c-3.77.169-23.581.505-28.181.51-16.839.014-39.944.192-60.4.316-.939.006-1.856.016-2.75.023.135 9.204.43 16.158.976 23.356.86.131 1.91.333 3.031.671 2.376.642 5.228 2.442 6.32 4.52l.124-.072c.129.179.287.691.425 1.266l.818 2.449-.171 1.193c.12 0 .208.06.222.258.097.468-.165 2.864-.334 3.296-.056.881-2.248 4.256-2.998 4.745-1.72 1.505-3.987 3.138-6.802 3.912-.03 4.332-.035 9.129-.017 14.186 19.698-.126 42.076-.536 56.182-1.017 8.014-.273 24.313-.644 32.203-.583 2.543.019 10.242-.057 19.878-.178-.135-10.193-.309-21.773-.469-31.529-2.808-.461-7.544-1.677-9.438-5.108a5.005 5.005 0 0 0-.123.074c-.336-.441-.89-2.964-.784-3.408l.002-.024-.197-1.576c-.193.05-.354.038-.372-.241-.098-.478.194-2.913.374-3.349.07-.897 2.345-4.274 3.108-4.755 1.812-1.538 4.212-3.19 7.16-3.916.008-1.873.016-3.417.02-4.096.004-.635.04-.964.097-1.099l-.041-.285h-3l.059-.18c-3.237.14-12.918.553-14.922.642zm-89.45 29.316c-1.272-.401-1.697.804-3.07.441a15.36 15.36 0 0 0-.804-.178 7.377 7.377 0 0 0-1.299-.128c-.84.025-1.558-.109-2.015.596-.544.815-.577 2.669.004 3.828a3 3 0 0 0 .332.545c.008.186.017.368.03.553-1.557 1.533.303 3.299.434 4.214.024.202-.223.425-.174.603.18.661.741 1.258 1.075 1.666l.549-.549c.117.299.245.548.428.767.14-.222.264-.452.372-.689-.008.154.232.628.484.777a.306.306 0 0 0 .11.06c.135-.013.268-.663.686-.496.887.191 2.033.117 3.161-.135a11.27 11.27 0 0 0 1.682-2.881c.471-.832 2.462-1.29 1.372-2.839a5.175 5.175 0 0 0 .596-1.77l.027-.005.004-.039c-.018-.003-.037-.005-.055-.01a2.881 2.881 0 0 0-.241-.804l-.11.033c.033-.027.063-.052.088-.076a1.991 1.991 0 0 0-.303-.438l.005-.003a.19.19 0 0 1-.094-.137c.116-.188-.003-1.148-.106-1.205-.11-.081-.434.162-.54.095-.022-.041-.6-1.022-.863-1.289-.171.211-.337.426-.497.644a10.903 10.903 0 0 0-1.425-.392l.157-.759zm110.275-19.596c-.142.01-.29.665-.723.5-.916-.19-2.08-.122-3.228.124-.753.91-1.357 1.9-1.769 2.889-.497.836-2.509 1.279-1.442 2.851-.139.25-.256.501-.351.754l-.203 1.22c.052.247.125.459.213.634l.109-.034a1.52 1.52 0 0 0-.088.076c.089.168.191.305.307.428l-.005.003a.198.198 0 0 1 .099.137c-.114.191.039 1.163.145 1.219.114.082.439-.164.55-.096.021.037.642 1.028.914 1.295.171-.213.337-.429.497-.647.457.157.95.287 1.464.391l-.153.76c1.298.401 1.726-.805 3.13-.44.359.086.619.143.874.189.352.061.715.111 1.285.124.871-.011 1.714.085 2.162-.591.562-.789.6-2.68.002-3.842a2.947 2.947 0 0 0-.309-.505 20.7 20.7 0 0 0-.031-.559c1.557-1.547-.314-3.329-.457-4.245-.027-.203.217-.428.165-.607-.189-.663-.763-1.255-1.111-1.661l-.538.56a2.61 2.61 0 0 0-.471-.775 5.857 5.857 0 0 0-.37.69c-.005-.156-.281-.627-.546-.778a.365.365 0 0 0-.121-.064zm-62.3-23.355c-2.594 3.246-5.602 6.566-8.279 9.361l18.951-1.256c-2.564-2.124-6.939-6.044-8.053-7.302-.572-.596-1.16-1.224-1.763-1.877-.28.356-.565.715-.856 1.074zm2.754-38.602c-3.918-2.21-9.802.27-12.72 1.476-.632.226-1.084.098-1.645.357-.472.22-.963.489-1.462.793 0 .006 0 .011.003.016-.021.31-.016.68.008 1.072.048.756.168 1.572.293 2.322l.761-.15c.181 1.59.541 3.204 1.024 4.83.34.162.68.32 1.025.48.162.984 1.309 4.648 1.49 4.91.298.542 1.423 1.244 2.072 2.77 1.497 3.122 3.292 6.182 5.269 9.14.468.447.942.887 1.418 1.324.535-1.25 1.058-2.543 2.363-4.401 1.502-2.244 1.963-2.869 3.566-5.962 1.796-3.429 5.113-11.07 4.355-17.402l-.017-.006a6.138 6.138 0 0 0-.776-.4 11.292 11.292 0 0 0-1.888-.617c-1.277-.3-2.512-.39-3.544-.322a25.335 25.335 0 0 0-1.595-.23z"/><path d="M118.827 1.63c2.191.225 3.546-.92 5.674-.559 2.249.38 4.688-.132 7.581.601 2.151.549 4.689.499 6.971-.148.61.362 1.215.727 1.813 1.095 4.75.235 12.557.107 16.986 1.544 3.209 1.001 8.164.32 11.304 1.87a170.65 170.65 0 0 1 2.094-.454c2.451 1.216 4.415 4.085 7.265 2.723 2.38 1.228 5.87 2.578 8.578 4.522 1.077.537 10.343 4.448 11.979 5.683a25.83 25.83 0 0 1 1.59.944c1.499 1.026 2.416 2.116 3.333 4.282.389.847 2.471 2.844 2.592 3.362 1.822 6.199 4.485 11.69 5.169 17.687.333 3.001 1.814 6.715 2.979 9.82 1.309 3.558 2.05 6.886 2.048 10.68-.011 2.045.253 5.07.826 7.568.895 3.87.647 8.969 1.577 14.495.862 5.054 1.284 11.653.149 17.688-.21 1.12-.128 2.215-.435 3.79-.454 2.417-.757 10.518-.053 13.865.105.484-.495 3.339-.562 3.763-.347 2.233-1.083 4.36.296 6.304-.337.402-.676.815-1.015 1.225.27 1.384.535 2.764.794 4.138l-.966-.045c-.58 1.576.734 2.293.829 2.86.26 1.593-1.09 2.226-1.105 2.483.985 3.491-1.184 9.274.513 13.303-.027.263-1.406.888-1.19 2.442.464 3.253-1.03 5.806.049 8.881-1.634 2.367-1.495 5.44-1.553 8.139-.382.381-.765.757-1.148 1.128.336 3.417-1.08 7.295-.506 10.962-2.191 4.387-1.862 9.095-5.098 14.068-.296.325-1.264 2.248-3.797 3.797l-.165.097c-.962.434-1.84.804-2.044.952-3.677 2.64-8.221 2.517-12.029 5.563-2.887-.503-7.482.528-9.649 1.353-2.095.805-3.718.891-5.027.946-2.454.096-2.401 1.235-3.016 1.474-1.363.513-2.331-.142-3.534.025-.107.106.235.47.098.719-.503.896-2.812 1.793-3.975 1.725-2.947-.153-6.946.221-10.16 1.475-.887.256-1.531-1.159-3.887-.693-3.249.647-8.351.735-12.065.555-.886-.249-1.409.903-1.887 1.017-.712.176-5.486-.206-6.362-.394-.349-.071-.922-.889-1.27-.963-2.431-.508-4.688 1.186-6.964-.045-1.11.77-3.094.209-2.891 1.883-2.105-.207-5.672-1.111-7.923-.738-.433.075-3.388 1.543-4.519 1.241-2.897-.769-6 .449-8.83-1.528-1.086.243-2.171.482-3.255.717-1.386-1.876-2.504-.868-3.767-.814-2.552.122-8.068-.45-10.772-1.143-2.007-.502-4.153-.497-6.908-1.397-1.705-.552-4.565.44-5.202.195-4.996-1.867-13.474-2.565-19.058-3.778-.555-.468-1.1-.938-1.637-1.409-.708.151-1.453.289-2.174.428-1.495-1.481-4.623-1.338-6.363-1.879-.323-.444-.612-.879-.947-1.332-.51.183-.857.361-1.456.011-1.975-1.172-4.062-2.372-5.96-3.562l-1.694-1.114c-3.987-4.706-6.82-9.664-8.899-15.01-1.02-2.57-4.606-6.586-4.529-10.279-.824-.308-2.577-4.179-2.603-4.667-.351-4.581-3.43-8.768-3.646-14.473-.01-.222.588-1.855.584-2.077-.023-.936-.602-2.321-.567-3.173.014-.355.727-1.048.748-1.408.075-1.734-.043-7.212-.55-9.031-.469-1.629-2.235-2.833-1.076-5.623-.916-1.092-1.345-2.473-1.31-4.041-1.946.318-1.188-2.157-2.172-3.359-.026-.425-.052-.851-.076-1.277.642-1.127 1.021-2.476.775-3.88-.44-2.463-.744-7.34-.256-10.18.478-2.863.527-6.215 1.028-8.883.04-.217.971-1.658 1.015-1.873.836-4.313-.373-8.443 1.525-11.931-1.093-5.865 2.094-10.45 1.55-16.604l-.961-.118c.156-.695.088-1.612.28-2.216 1.847-5.771.585-13.215 2.944-20.098l-.67-1.454c.93-2.005 1.897-5.858 2.947-7.826a261.37 261.37 0 0 1-.397-2.154c.95-1.112 3.73-6.254 3.984-7.503.61-3.172 2.335-6.142 3.892-9.847.909-2.102 2.309-3.075 3.617-4.64l.563.442 3.424-5.324 4-1.5 1.512 1.134c.999.015 1.996.036 2.995.062a251.93 251.93 0 0 1 3.257-2.15c1.17.281 2.724.41 3.897-.259.8-.456.969-2.62 3.6-1.124.708-.552 1.424-1.103 2.141-1.65 2.542.322 4.496-.853 6.938-.928.526-.473 1.054-.945 1.585-1.414.65 0 1.3 0 1.949.006 1.158-2.129 3.885-1.068 6.64-2.06 1.452-.522 3.05-.244 4.228-1.395 2.747 1.116 5.298-.44 8.238-.569 2.211-.102 5.845-.959 8.786-.878.221.005 1.782.699 1.997.707.826.01 7.414-.74 8.085-.936 1.238-.393-.314-1.073 3.084-.776 1.596.145 3.322-1.176 5.287-.894l.065.966c1.711-1.186 2.901-.248 4.685-.27 1.855-1.207 3.076-1.915 5.598-1.658zm19.757 7.14c-2.341-1.293-6.678.128-9.201 1.063-3.521-1.092-3.299.772-6.687-.038-1.199-.278-1.721.66-2.427.52-5.706-1.149-13.478 1.639-19.535.21-.371.36-.741.723-1.11 1.086-3.007-.87-5.648.366-8.6.073-1.5-.146-2.325 1.603-3.412 1.967-1.5.501-2.673.084-3.988.152l.161.954c-.956-.106-1.284.711-1.41.734-.193.034-.425-.361-.68-.372-.81-.032-.955.663-1.106.692-.2.03-3.56-.316-3.766-.27-1.338.245-6.871.847-7.245 1.038-4.79 2.246-10.974 1.87-15.911 4.15-.436.195-3.014 1.92-3.207 1.985-.192.06-.492-.32-.724-.28-1.549.263-3.543.906-4.93.588-.282.435-.562.87-.84 1.307-2.12-.579-4.297.475-6.49.841l-1.716 1.546c-1.167.667-3.7 2.4-4.5 4-.51 1.018-2.125 2.897-3.661 4.56-.381 1.166-.37 2.14-1.57 3.996-.427.65.097 1.016.06 1.254-.272 1.697-2.815 4.274-2.476 6.128-1.888.96-1.273 1.517-1.285 2.81-.014 1.137-1.221 1.65-1.225 2.828-.021 2.552.08 5.97-.791 7.995-.078.18-.008.753-.351 1.782-.985 2.99.137 3.422.182 4.406.116 2.419-.963 5.24-.656 7.307-.376.355-.751.713-1.127 1.073-.068 3.273-.656 6.006-1.16 9.768-.362.376-.725.765-1.085 1.136 1.718 1.737-.239 2.834.53 4.983-.354.384-.708.771-1.061 1.16.854.876.04.769-.09 1.229-1.107 3.81-1.382 10.253-.69 14.173-.332.402-.665.807-.996 1.213.645 1.261-.163 1.874-.042 2.474.317.417.635.833.954 1.247-.492.818-.98 1.641-1.464 2.467.898.67-.307 1.19.009 2.48.626 2.528.287 3.041-.387 5.589.958 2.198 1.418 5.357 1.271 7.388-.261 3.58 1.735 5.517 1.103 8.583 2.082 3.905.929 11.087 2.676 15.246-1.059 2.911-1.949 5.493-.755 8.899-.225.476-.449.953-.67 1.43.833.311.408 1.606.104 2.529.289-.178.579-.354.868-.531.492.892-.124 1.362-.097 1.603.287 2.472 1.582 5.739 2.732 7.61.504.879.954 6.53 2.395 7.679a96.88 96.88 0 0 0-.074 1.033l.884-.395c.282.81.912 1.725 1.183 2.517.303 1.03 1.63 5.449 2.483 6.374 1.986 2.336 2.215 7.3 5.278 9.531l.449.296.056.017c2.555.777 5.328 3.075 8.177 3.609 4.642.906 10.235 3.575 13.477 3.614.36.002.677.462 2.46.534 2.928.118 4.914 2.393 6.916.857 3.747 1.496 8.757 1.271 13.156 1.077.986.458 1.982.913 2.989 1.364 1.868-1.678 3.57.395 6.29.241 1.805-.106 3.008-1.009 5.702-.406.434.104 5.747 1.057 6.196 1.004 2.814-.292 4.875.118 7.5.498 3.849-2.066 8.845-1.151 13.194-1.884 5.144-.853 12.028-1.252 16.809.535 3.001-.489 5.652-.097 9.314-.79 2.421-.46 5.677 1.014 8.378-.506l.073.966c1.209-.225 2.928-.035 4.04-.332 2.152-.578 3.614-.421 6.145-1.114 4.919-1.358 11.346-2.916 16.649-5.112 4.134.437 7.956-1.253 11.805-2.697.676.11 1.347.214 2.015.312.953-1.328 3.626-1.769 5.21-1.667.581-.699 1.334-1.152 2.139-1.515l-.09.054c1.037-.4 3.115-2.427 3.018-4.36.766-.636 1.443-1.108 2.172-1.781-.244-1.434.693-1.828.723-2.404.12-2.23.21-3.775.857-5.536.825-2.345-.785-2.956.013-5.057 1.458-3.972-.48-8.043 1.289-11.722a715.8 715.8 0 0 1-.806-1.366c.237-.603.474-1.231.703-1.8-1.213-2.831-.352-8.237.635-11.143-.268-.648-.534-1.327-.808-1.947.717-2.401.984-6.151.618-8.632.36-.595.719-1.195 1.077-1.797-.226-1.582-.43-8.393.018-10.586.368-1.701.557-5.314.224-7.442-.52-3.307-.353-7.73-.832-11.788-.428-3.67-.264-8.281-1.102-11.743-.063-.284.711-4.322 1.31-4.993-.249-3.967-1.386-8.262-.078-11.78-.374-.808-.75-1.612-1.129-2.41 1.438-3.073-.657-6.515 1.111-10-.38-.574-.766-1.182-1.151-1.765 1.292-1.7-.955-6.325-.871-7.356.441-4.286-1.514-8.671-1.619-12.811-.063-3.035-.891-7.36-1.232-11.053-.142-2.42-2.643-8.247-4.855-9.694.405-1.352-.839-2.619-2.165-2.66-.269-1.003-1.306-2.236-2.352-2.963-1.963-1.468-4.503-2.706-6.04-4.193-.358-.426-5.611-1.797-6.706-2.428-2.738-1.73-6.291-1.792-9.477-3.607-4.297-2.489-11.526-2.482-15.76-4.306-.94.687-1.885.91-3.165.45-4.258-1.503-9.646-1.041-14.454-2.622-.63.277-1.26.558-1.89.84zM24.173 26.046c.219-.366-.193-.62-.416-.248-.222.375.197.617.416.248z"/></g></svg>